<svg xmlns="http://www.w3.org/2000/svg" width="482.5" height="469.7" viewBox="0 0 127.7 124.3"><path d="M15.7 124.2c0-.6 5.8-5 8.6-6.5l1.8-1-3.8-3.8A96 96 0 0 1 7 93.8C4.1 89.1 3 85.9.9 75.2l-1-4.9V53.9l1.7-5 1.6-5.4c0-.6 3.2-7.4 5-10.5 2.5-4.6 5.4-8.7 8.7-12l2.7-3.1A55.6 55.6 0 0 1 39.8 4.4a188.8 188.8 0 0 0 5.3-2l3.2-.8C52 .6 55 .1 58.3 0a69.2 69.2 0 0 1 49.5 18.4c3 2.9 8.2 9.1 10.7 12.8.8 1.3 2 3.6 2.7 5.2l1.8 4a63.3 63.3 0 0 1 3.8 13.5c.4 2.6.9 9.5.9 13.3 0 6.2-1 13.9-2.1 17.4a65.9 65.9 0 0 1-8.6 16.7 105 105 0 0 1-9.4 11c-.6.3-.8 1.5-.8 4.2 0 .9-.1 1.6-.3 1.6a40 40 0 0 1-.1-6c0-5.2 0-6.3-.5-8.5-.5-2.4-1.6-10.4-1.5-11a50 50 0 0 0-2.9-20.7c-1.2-3.1-2.6-5.7-3.1-5.7-.4 0-1.7 2.7-2.2 4.6-.5 2-.5 2-.8 1.9-.3-.2.4-2.7 1.4-5a14 14 0 0 0 1-2.4c0-.2.1-.5.3-.6.6-.4 2.2-3 2.7-4.5.6-2 1-4.6.8-5.8 0-.7-.6-2-1.2-3.1-.5-1.1-1-2.4-1.1-3l-.6-1.7-.9-3.6c-.7-3.4-.9-3.8-2.1-5-2.2-2-3-2.3-7-2.3-4.2-.1-5.8-1-7.5-4l-.8-1.4-.6 1.7c-.8 2.2-2.6 5.8-3.9 7.5-.9 1.2-1 1.3-2.7 1.5-1 0-4.4 0-7.5-.2l-5.8-.3-1.6-1.5a59 59 0 0 1-4-4.5 24.6 24.6 0 0 0-13.6-9.6c-.6-.4-2.8.2-9.2 2.3-5.5 1.8-6 2-6.5 3.4-.7 1.5-.5 2.4.6 3 1 .7 3 .8 4.8.3.9-.3 1.3-.2 2.1.1.6.2 1 .5.9.7-.2.3.8 3.7 1.6 5.3.3.8 1.2 2.3 1.8 3.3.6 1 1.3 2.4 1.4 3 .3.8.9 1.6 2.3 3 1 .9 2.2 2 2.6 2.2l.7.6-1.5 1.7c-.8.9-1.4 1.8-1.3 2 0 .2-.1.4-.4.5a2 2 0 0 0-.8.5c-.2.3 0 .5 1.4 1.2 1.8 1 2.9 1.8 2.9 2.3 0 .3-.2.3-.7 0l-.8-.2c-.2.3.2 1.9.6 1.9 1 0-.4 1-2.2 1.5-.7.2-.8.4-1 1.7 0 .8-.3 1.9-.6 2.3-.5 1-2.7 2.9-4.6 4a27.7 27.7 0 0 0-7.7 6.1c0 .1.8-.3 1.7-1 1.9-1.3 3.2-2 3.7-2 .2 0 1-.3 1.6-.7l2.5-1.8a40.9 40.9 0 0 0 16-19.2l2.2-3.3c.4-.7 1-1.3 1.3-1.4.3 0 .4 0 .3.4-.2.6.1.5.8-.2.4-.4 1.2-.9 1.9-1.1.7-.2 2-1 2.8-1.7.9-.8 1.8-1.3 2-1.2.1 0 .7-.1 1-.3 1-.5 1.4-.4.8.3-.5.7-.1.7 1 0 1-.8 1.2-.8 1.2-.4l-1.4 1a16 16 0 0 0-2.5 2 17 17 0 0 1-2.5 2.1c-3 2-5.1 3.9-4.9 4.3.1.2-.2.8-.7 1.4l-1.2 1.8-1.2 1.9-2.4 3.3c-2 2.8-6.4 6.4-10.9 8.8-3.5 2-5.4 3.2-6.4 4.3-.4.4-1 .7-1.3.7-.3 0-.8.3-1.2.6-1 .7-1.2.6-.6 0 .6-.8.3-.6-1.4.6-.6.4-1.1.9-1.1 1l1 .3c.6 0 1.6.4 2.3.8 1 .6 1.1.8 1.6 2.5.4 1.8.4 1.9-.1 3-.6 1.5-2.5 3.6-3.6 4.1-2.7 1.3-3.4 1.8-3 2.2.4.3 7.2 1.5 9.8 1.8 2 .2 3.2 0 2.9-.6a9 9 0 0 0-1.4-1.3c-1-.8-1-1-.6-1.1.3-.2.8.2 1.8 1.2 1.2 1.3 1.4 1.5 2.1 1.3.4 0 .8-.2.8-.4L40 90.3c-1.8-1.2-2.2-1.6-1.5-1.6.5 0 2.1 1.1 3.2 2.2l.9.8 2-.5c1-.2 2.1-.6 2.4-.8.5-.3.4-.4-.7-1a24 24 0 0 0-7.1-1.5c-1.1 0-1.2 0-.6-.4 1-.7 5.3 0 8 1.3 2 1 2 1 2.8.6 1.2-.6 1.4-.5.5.2-.7.7-.7.7-.2 1 .2.3.6.5.8.5.5 0 1.5.6 3.2 2 1.5 1.2 1.6 1.3 3.9.9a35.8 35.8 0 0 0 8.1-1.3c1.6-.4 3-.6 3-.5.4.4-.4 1-1.5 1.1l-4 .8a25 25 0 0 1-5 .7c-1.1 0-2 0-2 .2l.7 1c1.2 1.2.6 1.3-.7 0-1.2-1-1.6-1.1-4.2-.8-1.4.2-1.5.2-2.8 2L48 99l1 2 .8 2.2c-.2 0-1.5-2.2-1.5-2.6l-.4-.5c-.6-.5-.8.6-.3 1.4l.8 1.1c.3.4.4.8.3 1.4-.2.7-.3.8-.7.5a4 4 0 0 1-1.1-1.2c-.5-.8-.6-.9-.7-.5 0 .3.4 1 1.4 1.8 1 .8 1.5 1.5 1.5 1.9 0 .5 0 .5-.4-.1-.4-.9-2.3-2.6-2.7-2.6-.6 0-.4.6.3 1.3.4.3.7.7.7.9 0 .1-.3 0-.6-.4l-.5-.6.1 1 .2 1-.5-.6c-.3-.3-.6-.8-.6-1 0-.5-.3-.3-1.7 1-.7.7-1.4 1.3-1.6 1.3l-1.8 1a64.3 64.3 0 0 0-9 5.3 125 125 0 0 1-6.2 4 69.1 69.1 0 0 0-9 6.2zm16.5-11.6a41 41 0 0 1 3.8-2.3 29.8 29.8 0 0 0 8.6-5.8c.2 0 .3-.3.2-.6-.2-.4-.5-.1-2.3 1.4a21.2 21.2 0 0 1-4.3 3.1 51.7 51.7 0 0 0-8.3 5.4c-.6.8-.4.6 2.3-1.2zm-2.5-1.6a99.2 99.2 0 0 0 8.4-5.5l2.2-1.4.8-.7-.6-.7a11 11 0 0 1-1.3-2.1l-.5-1.3-2.3-.1a92 92 0 0 1-9-1c-1.8-.5-2.8-1.5-4-4.1-.8-1.4-1.3-2.6-1.3-2.7 0-.2-.5-.6-1-1-1-.6-1.4-1.1-2.3-3.1-2-4.3-2-6-.3-8 1.4-1.6 8-6.4 11.1-8.1 2.9-1.5 4.2-2.7 4.8-4.1.7-1.4.7-1.6.6-5.9v-4.4l.8-1.2c.4-.6 1.1-1.5 1.5-1.8.4-.4.7-.7.7-.9a16.6 16.6 0 0 1-6.4-13c0-.2-.4-.9-1-1.5-.9-1-1-1-2.8-1-2 0-4-.6-4.7-1.3a9 9 0 0 1-1.6-3.1c-.3-1.1.2-3.2 1-4.6.9-1.2 3.1-2.6 5.7-3.3a1591.7 1591.7 0 0 1 7.5-2.3c1.3-.5 6.5-.7 8-.2 4.6 1.2 9.6 5.3 15 12.3 2.3 2.9 2.7 3 9.6 3.2 4.8.1 5 0 5.3-.4 1-1.8 3.3-6.5 3.7-7.9.7-2.5 3-5.7 4.5-6.2 1-.3 2.8 0 3.7.8a41 41 0 0 0 5.5 3.5c6.2 3.2 8.6 5 9.1 7 .2.5.4 2.4.5 4.2.1 3.2.6 4.7 2.7 10.2 1.4 3.3 2 5.6 1.7 7.1-.2 1.6-1.9 6.6-2.6 8-.5.7-.5.8 0 1.2l.7 1.3a61.1 61.1 0 0 1 3.1 10c.8 3.1 1.1 6.2 1.2 12.5a59.8 59.8 0 0 0 1.3 12.1c.4 2.5.5 2.6.9 2.2.3-.3.3-.8-.3-3.7-.6-2.7-.8-4.2-1-9.3-.2-7.9-.7-13.3-1.1-14.3l-1.4-4.2a19 19 0 0 0-2.4-6.4c-.7-1-.6-1.3 1-4.1 1-1.6 1.1-2.2 1.3-4.2.2-2 .2-2.7-.3-4.4-.2-1-.8-2.6-1.2-3.5a30.1 30.1 0 0 1-3.1-12.1c-.2-2.7-.2-3-1-4.3-.6-1-1.3-1.7-2.3-2.3l-1.7-1s-1-.4-1.8-1a98 98 0 0 0-3.5-2c-1-.5-2.6-1.6-3.6-2.3-1-.8-2-1.4-2.3-1.4-.3 0-.7-.1-1-.3-.7-.3-2.8.1-3.6.7-.9.6-2.8 3.5-3.4 5.2a61.5 61.5 0 0 1-2.9 6.4c-1 2.2-1 2.2-3.2 2l-5.3-.2a24 24 0 0 1-3.8-.3 44.9 44.9 0 0 0-4.8-5.4c-7.3-7.5-7.3-7.5-11-9a11 11 0 0 0-4.9-.6c-3.4 0-7.7.8-10.4 1.9l-4.3 1.5c-2 .6-2.7 1-3.8 2-1.3 1.2-1.4 1.4-1.9 3.3-.4 2.2-.3 2.8.9 5 1 1.8 1.9 2.4 4 2.8 1 .1 2.3.2 2.8.1 1.6-.2 2.2.5 3.2 3.5l1 2 .7 1.4 1.7 3.7c1 1.8 1.7 3.6 1.7 3.8 0 .3-.5 1.3-1.1 2.3-1.3 2-1.3 1.9-1.2 6.5 0 4.3-.4 5.6-2.2 7.1l-2.6 2a210.8 210.8 0 0 0-6.6 4.3c-3 2-5.7 4.2-6.2 5.3-1.1 2.2.6 7.2 3.5 10 1 1 1.6 1.9 1.9 2.7 1.3 4.6 3.4 6.1 8.7 6.5l5 .3c2.3 0 2.7.2 2.7.8 0 .3.4 1 .8 1.6.4.5.8 1.1.8 1.3 0 .3-.8.7-3.2 2a41.2 41.2 0 0 0-5.8 3.7c-2.5 1.5-4.4 3.1-3.6 3.1l2.2-1.2zm-2.7.2c0-.2-.1-.3-.4-.3-.3 0-.5.1-.4.3l.4.2c.1 0 .3 0 .4-.2zm.8-.8c-.4-.3-2.5-.6-2.5-.3 0 .4.3.6 1.5.6.7 0 1.1-.1 1-.3zm-.4-.8c0-.2-.4-.3-1-.3l-1.7-.1H24l1.6.4 1.6.2c.1 0 .2 0 .2-.2zm-1-.8s-.5-.3-1-.3l-2-.4c-.6-.1-.8 0-.6.1.1.2.8.4 1.5.6 1.8.3 2 .3 2 0zm-1.1-1c-.7-.4-3.7-.7-3.3-.4.2.3 1.2.5 3 .6.5 0 .6 0 .3-.2zm-1-1c-.3-.4-3.3-.6-3.3-.4 0 .2 3.2.8 3.5.6 0 0 0-.2-.2-.3zm7.7-4.9c1.2-.8 1.5-1.3 1-1.3-.2 0-.6.3-.9.6-.2.4-1.4 1.2-2.6 2a1835 1835 0 0 0-4.8 3c0 .2 5.4-3 7.3-4.3zm-8.3 4c0-.3-1.3-.5-2.8-.5-1.2 0-1 .4.4.6 1.7.2 2.4.2 2.4 0zm83.2-3.1l-1-5.4-.5-2.2.2 2.4a35.3 35.3 0 0 0 1.6 8.5c0-.1 0-1.6-.3-3.3zm-84.4 1.9c-.6-.4-3.9-.6-3.4-.2.3.3 1.2.5 2.7.5 1.1 0 1.2 0 .7-.3zm16.3-1.1c.5-.4.4-.5 0-1.2-.3-.4-.7-1-.8-1.4-.2-.4-.5-.7-.9-.7-.5 0-.5 0 .2.6.4.3.7.7.7 1l.3.8c.3.4.2.6-.2 1.1-.6.6-.1.5.7-.2zm-17 .2c0-.2-1.8-.6-3-.6-1 0-.8.5.2.6 1.6.2 2.8.2 2.8 0zm26.5-.4c0-.8-1.2-2.2-1.6-1.9-.2.2 0 .7.5 1.4 1 1.3 1 1.4 1 .5zm-22.9-1.3c1.2-.7 2.2-1.5 2.2-1.6 0-.3-1-.2-1.5.2-.7.7-2.2 1.7-3 2-.4.2-.7.5-.7.6 0 .5.9.1 3-1.2zm21.3-1.8l.8-1.2-.6-1c-1-1.8-1.2-2-2.9-2h-1.5l.1.7.5 1.5 1.9 4.8c.1.5.2.4.6-.5l1.1-2.3zm-27.1 2.4a10 10 0 0 0-1.7-.2h-.7l.7.2a7 7 0 0 0 1.7.2h1l-1-.2zm.4-.5c-1.3-.4-3.3-.6-3-.3.2.2 1.4.4 3 .5h.6l-.6-.2zm-.2-.8c-.3-.4-3.7-.7-3.4-.3.3.2 1.2.4 2.9.5.5 0 .7 0 .5-.2zm91.5.2l-.5-.3c-.2-.1-.3 0-.2 0 .2.3.7.5.7.3zm-68.6-2.8l-1-2.3-5-.2c-5-.1-7.6-.5-9.5-1.4-1-.5-1-.6-1.3-2.9-.1-1.1-.3-1.4-2-3.1a13 13 0 0 1-3-4 11 11 0 0 1-1-2.6c0-.9.8-1.9 2.5-3.2 1.5-1.2 3-2.2 10.7-7.3 3.5-2.4 4.5-3.4 5.1-5.4.6-2 .8-3.6.4-4.3-.4-.7-.7-3.1-.5-4 0-.5 1-2 2.2-3.4l2.1-2.6-2.2-2.2c-1.7-1.7-2.3-2.5-2.6-3.5a19 19 0 0 0-1.6-3.1 23.5 23.5 0 0 1-2.8-6.6c-.5-2.2-.6-2.3-2.5-2.1-3.4.4-4.7.2-6-.8-1-.9-1-2-.2-3.6.6-1.3 1.5-1.9 3.7-2.5 1-.2 3.1-1 4.9-1.6 4.9-1.8 6.2-2 8.1-1.7a20 20 0 0 1 7 3.4c2.6 1.8 3.5 2.6 6.6 6.3 1.5 1.9 3.4 4 4.1 4.6l1.4 1.2 4.8.3c5.4.4 9 .2 9.7-.4a25.4 25.4 0 0 0 5-9.6c1.3-4.3 2.4-5.1 4.5-3.2 2.8 2.4 6 4.3 9 5.2 2 .6 4 2.3 4.5 4 .4 1.4.7 1.6.5.4-.1-1.3-1.3-3-2.7-4l-6-3A30 30 0 0 1 85 27c-2.2-1.6-3-1.8-3.7-1a27 27 0 0 0-3 6.2c-1 2.7-1.9 4.6-3 6-1 1.7-1.3 1.8-6 1.6-6.6-.1-8.5-.3-9.3-1-.5-.2-2-1.8-3.3-3.4-6-6.9-7.3-8-11.2-10L43 24h-3c-2.6 0-3 .1-5.7 1.2-1.5.6-3.7 1.2-4.7 1.5-1 .2-2.7.8-3.7 1.3-2 1-2.6 2-2.6 3.9 0 1 .1 1.3 1.2 2.2 1.2 1.2 3 1.6 4.6 1.1 2-.5 2.9.1 3.6 2.7.6 1.9 2.4 5.7 3.2 6.8.3.4.9 1.4 1.1 2.2.7 1.7 2 3.8 3 4.6l.8.8-1.5 2.1c-1.9 2.5-2.3 3.6-2 5.8.4 2.2.4 5.1 0 6.3-.4 1.5-1.4 2.5-5.1 5C22.6 77.9 20 80 19.6 81.6c-.4 1.5 2.3 6.7 4.2 8.3a4 4 0 0 1 1.7 3.3c0 1.1.7 2.3 1.4 2.5 3.1.7 8 1.3 10.9 1.3 3.7 0 3.9.1 3.9 1.6 0 1 .9 2.5 1.5 2.5.5 0 .4-.2-.5-2.3zm68.7 2l-.7-.3c-.6-.1-.6-.1-.1.2.5.5 1 .6.8.2zm-92.2-.2c0-.4-.3-.5-2.3-.7-1.2 0-1.5 0-1.2.2.2.2 1 .4 1.7.5l1.6.2s.2 0 .2-.2zM32 100c.3-.1-.6-.3-2.4-.4-3.1-.1-3.6-.3-5.3-1.7-1-.8-2.5-3.3-2.9-5 0-.4-.8-1.4-1.6-2.2a21 21 0 0 1-4-7c-.2-1-.3-1.8-.2-2.7.2-1 .4-1.5 1.7-2.7a52 52 0 0 1 7.3-5.3l3.1-2c3.5-2.4 5.1-3.9 5.5-5 .2-.5.3-2.7.3-5 .1-4 .1-4.4.7-5.4 1.4-2.2 1.7-2.8 1.7-3.2l-1.7-3.8a748.9 748.9 0 0 1-4-8.3l-.6-1.3-2.2-.2c-4-.2-5.3-1-6.8-3.9-.8-1.6-1-3-.4-5.3a6.5 6.5 0 0 1 5-4.8l3.8-1.2c5.3-2 7.8-2.5 11.4-2.6 1.9 0 3.4 0 3.4-.2 0-.4-1.6-.5-4.5-.2-2.6.2-3.9.5-8.4 2l-6.2 1.8c-2 .5-4 2.2-4.9 4.3a11 11 0 0 0 0 6c.9 2.9 3.2 4.6 6.8 5 3.1.3 3 .3 3.9 2.3.4 1 1 2.2 1.1 2.8l.8 1.7a42 42 0 0 1 2.3 4.4c.5 1.5.4 2-.6 3.6l-1 1.6-.2 5v5l-1.2 1a51 51 0 0 1-7 4.8 41 41 0 0 0-8.8 7c-.7 1-.8 1.3-.8 3 0 2 .8 4.1 2.1 5.8l1.2 2c.2.6.9 1.5 1.4 1.9.5.3 1 1 1.2 1.4l.7 2a9.3 9.3 0 0 0 3.8 4.4c.5.2 2 .5 3.3.6a123.7 123.7 0 0 1 3.2 0zm1.8 0H33c-.2.1-.1.2.3.2.5 0 .7 0 .5-.1zm-12.2-1c.9-.2 1.6-.6 1.6-.7 0-.1-.3-.2-.5 0-1 .3-1.8.6-2.8.7-.9.2-1 .3-.7.6.2.2.4.3.6.2.2-.2 1-.5 1.8-.8zm90.3.6c-1.3-.6-2.2-.7-1-.2.5.3 1.2.5 1.4.5.2 0 0-.1-.4-.3zm-93.5-.3c0-.3-.3-.4-1.1-.4-.7 0-1.4 0-1.8-.2-.5 0-.6 0-.5.2.1.4 1.1.6 3 .8.2 0 .4-.2.4-.4zm94.4-.2c-.2-.2-3-1-2.8-.8.3.3 2.7 1 2.8 1v-.2zm-95.2-.8c-.4-.4-3.5-.7-3.4-.3.1.2 1.5.5 3 .6.6 0 .7 0 .4-.3zm95.5.2l-1.2-.5-1.2-.2c0 .1.4.4.9.5 1 .3 1.5.4 1.5.2zM48.8 97c1-1.3 1-1.7 0-1.2-.4.1-1 .2-1.5.1l-.9-.1.7 1.2.8 1.2.9-1.2zm64.8 1c0-.1-1-.5-2-.7-.6-.1-.5 0 .3.4 1 .5 1.7.6 1.7.4zM17 97.6a6 6 0 0 0-1.8-.5c-1.1-.2-1.5-.2-1.5 0 0 .4.8.6 2.5.6.6 0 1 0 .8-.1zm93-.1c0-.2 0-.8-.2-1.3s-.3-1.7-.4-2.7c-.1-2.3-.4-2.7-.4-.6 0 1.9.5 4.9.8 4.9l.2-.3zm3.3-.4c-1.5-.5-2-.4-.6.1.6.3 1.3.5 1.4.4.1 0-.2-.3-.8-.5zm-96.7-.4c0-.4-.3-.5-2-.6-1.3-.2-1.7-.1-1.5 0 .2.3 1.4.5 3.3.9.1 0 .2-.1.2-.3zm97-.1l-1.2-.4c-.2 0 0 .2.5.4 1.3.5 1.7.5.7 0zm.2-.7l-1.3-.4c-.2.2 1.5 1 2 1 .3 0 0-.3-.7-.6zM20 95.6c1-.3 1.3-.4 1.2-.7-.2-.3-.4-.3-1.1 0a8 8 0 0 1-2.2.2c-1.2 0-1.7.3-1.3.7.2.2 1.9.1 3.4-.2zm95.2.2c-.2-.3-2-1-2.2-.8-.1.1 1.5.9 2 1 .2 0 .3-.1.2-.2zm-100-.5c.5-.4.5-.4-.3-.4l-1.4-.2-.6.1c0 .2.5.4 1 .4h1l-1 .2-1.1.2h1c.5 0 1.1-.1 1.4-.3zm26 0c0-.1-.2-.7-.5-1.1-.5-.9-.5-.9-2.4-.9-1 0-3.4-.1-5.3-.4-6-.8-5.8-.8-5.8-.3 0 1.2 1.7 2.1 5 2.7 2.2.4 9 .4 9 0zm3.7 0c.1-.2-.4-1-1.3-2.1-.6-.7-.7-.8-1.6-.5l-1 .5.6 1.3.7 1.2 1.3-.2 1.3-.3zm70.7-.1c0-.2-.6-.5-1.2-.7-.8-.3-1.2-.3-1.1-.1 0 .2.5.4 1.1.6a54.6 54.6 0 0 1 1.2.2zm-66-.3l4-.4.7-.2-.9-.8c-.5-.4-1-.7-1.2-.7a6 6 0 0 1-1.6-1c-1.7-1.1-2.2-1.2-2.9-.8l-2.3.9-1.8.5 1 1.3c.6.8 1.1 1.4 1.3 1.4l3.7-.2zm56.1-1.6c.1-1.9-.3-9.4-.7-13a36 36 0 0 0-4-12.5c-1.3-2.6-1.4-2.8-1-3.3a21 21 0 0 0 2.8-7.7c.2-2.5-.3-4.1-2.3-9-.8-1.8-1-2.7-1-4 0-1-.2-2.2-.4-2.8-.3-1-.4-.8-.3 1.5.2 3 .8 5.6 2.2 8.5 1.4 2.9 1.5 4 1 7-.5 2.7-.9 3.6-2.1 5.5-.6.8-1 1.5-1 1.7 0 .2.4 1 1 1.7a19 19 0 0 1 2.6 5.9 67.3 67.3 0 0 1 2.8 17.8c-.2 4.3.1 6.1.4 2.7zm-91.2.8c-.6 0-.6-.1-.1-.3.4-.2.4-.2-.3-.2-.5 0-.9 0-.9.2 0 .1-.3.3-.7.4h.5l1.4.2h.5c.2-.1 0-.2-.4-.3zM115 94a2 2 0 0 0-1-.3h-.5l.5.3 1 .2c.3 0 .3 0 0-.2zm1.1-.6c-.2-.2-2.7-.6-2.4-.4l1.1.5c1 .4 1.7.4 1.3 0zM14.3 93c.3-.3-.3-.3-1.8.1-.7.2-1.2.4-1.1.5.2.2 2.6-.4 3-.6zm102.4 0c.2-.3-1.7-1.1-2.2-.9-.6.2-.1.6 1 .9l1 .3.2-.3zm-103.3-.4c1-.3.4-.6-.6-.3l-1.5.2c-.2 0-.3.1-.3.3 0 .3 1.1.2 2.4-.2zm99.2.2c1.2-.3.8-.7-.6-.7a6 6 0 0 1-1.9-.2c-.3-.2-.4-.1-.4.3l.1.6c.3.3 1.9.2 2.8 0zm4.5-.5c0-.3-1.2-.9-1.8-.9-.3 0-.1.3.5.6 1 .5 1.3.6 1.3.3zm-103.7-.5c.5-.3-.2-.6-1-.5-1.6.3-2 .4-1.8.7.1.2 2.3 0 2.8-.2zm5.5 0c.4-.3-.7-.5-2.4-.4-2.1.1-2.8.5-1.2.6.9.1 3.4 0 3.6-.2zm98.4-.3c0-.2-.3-.4-.8-.6-1-.3-1-.3-1 0l.7.5c1 .3 1.1.3 1.1 0zM12.1 91c.5 0 1-.2.9-.4h-1.3l-1.3.3c-.1 0-.2.1-.2.3 0 .1.2.2.4.1l1.5-.3zm105.8-.2c0-.2-1.7-1-2-1-.4 0 0 .6.6.8.8.3 1.4.4 1.4.2zM12.4 90c.4-.2-.2-.9-.9-1-.6 0-.6 0 0 0 .3-.1.5-.3.5-.4 0-.4-.7-.5-2-.5-.7 0-1 0-.8.1.4.1.4.2.2.5-.3.4-.2.4.4.5.7 0 .7 0 .2.1-1.2.2-.3.6 1 .5l1.4-.1-1.1.2c-1.8.4-2 .6-.5.4l1.6-.3zm-1.8-1.6h.7l-.3.1h-.4zM118.1 90c0-.2-1.5-1-1.8-1-.5 0-.3.5.3.8.6.3 1.5.4 1.5.2zm-89.6-2c2.3-1.6 3.7-3.8 3.5-5.5-.3-2-.3-2.1-2.2-3-3-1.3-5.8-1-8.2 1-1.5 1.3-.8 3 1.2 3.5.5 0 .9.2.9.3 0 .4-.8.6-1.2.4-.3 0-.4 0-.4.4s.7 1.3 1.7 2.4c1.7 1.8 1.8 1.8 2.6 1.6l2-1.1zm-.8-2.2c0-.2-.3-.3-.6-.3-.5.2-1.8-.3-1.8-.7 0 0 .3-.2.8-.2.4 0 .8.1.8.3 0 .5 1 0 2-.9 1-1 1.1-1.3.3-1-.4 0-.5 0-.4-.3 0-.4 2.2-1 2.5-.6L29.9 84c-1.4 1.4-1.5 1.6-.9 1.4.9-.2 1 .2.3.6-.8.4-1.4.4-1.6-.1zm81.4 2.6c-.1-.3-.2-.1-.2.3 0 .5 0 .7.1.5.1-.2.1-.5 0-.8zm9.3.6c0-.2-1.7-1-2-1-.4 0 0 .6.6.8.9.3 1.4.4 1.4.2zm-4.7-.4c1-.3 1.6-.5 1.8-.9.3-.4.2-.5-.2-.3-1.4.4-3 .6-4.2.7-1.3 0-1.9.2-1.5.6.3.3 2.5.2 4.1-.1zm5.1-.3c.2-.2-.3-.4-1.7-.9-1-.3-.6.3.4.7l1 .5.3-.3zm-107.4-.8c0-.2-.5-.3-1.4-.3-2 .1-2 .6-.1.6 1.2 0 1.6-.1 1.5-.3zm97.5-3.9c-.3-.3-.3-.1-.2.9a45.9 45.9 0 0 1 .4 1.4c0-1 0-2-.2-2.3zm10.2 3.7l-.8-.4-1-.3h-.5c0 .4 1.2.9 2 1 .2 0 .4-.2.3-.3zM15.8 86.2c-.5-1-.5-1-.7-.3 0 .4-.3.7-.4.7-.2 0-.3-.2-.2-.4.2-.6-.4-.5-.8.1-.3.5-.3.5.3.7.5 0 2 .3 2.2.2l-.4-1zM10 87H8.7c-.4 0-.2.1.6.1h.7zm109.4-.2c-.3-.3-2-.8-2-.6 0 .3 1.6 1 1.9.8l.1-.2zm-108.7-.4c.3-.2.3-.3-.2-.4-.5-.2-.5-.3-.3-.4.2-.2-.2-.2-1.1-.2-1.8 0-2.1.5-.4.5h1l-.9.2c-.5 0-1 .2-1 .3 0 .4 2.4.3 3 0zm1.9 0l-.4-.6c-.4-.6-.8-.2-.5.5.1.4.9.5.9.2zm106.6-.4a7 7 0 0 0-1.3-.5c-.4 0-.2 0 .4.4 1.1.6 2 .7.9.1zm-.1-1c-1.2-.5-1.5-.5-1.5-.2 0 .2 1.3.8 2 .8.3 0 .1-.2-.5-.5zm-109-.2c0-.1-.6-.2-1.4-.2-.8 0-1.4 0-1.4.2s.6.3 1.4.3c.8 0 1.5-.1 1.5-.3zm1.6-.4c-.2-.2-.7.1-.7.5 0 .1.1.1.4 0l.3-.5zm108.6.4l-1.2-.6c-1.5-.5-1.6-.1-.2.4 1.1.5 1.4.6 1.4.2zm-7-1.1c2.5-1 4.5-2 4.7-2.5v-.5l-2.6 1.2a33 33 0 0 1-5.7 2.3c-.2 0-.3.2-.2.4.2.3 1 .1 3.7-.9zm-98.8.7c.3-.1.3-.3.2-1-.3-1 0-3.4.7-4.5.8-1.2 2.4-2.5 7.2-6l2.4-1.5c1.1-.6 1.3-.8 1.2-1.3 0-.7.3-.8.5-.2.1.3.3.2 1.3-.4.7-.4 1.2-.8 1.2-1 0-.2.6-.6 1.3-1 1.4-.6 1.9-1.3 2-2.7l.2-1-.4.9c-.7 1.5-1.5 2.2-2.4 2.4l-1.5.4H28c.2-.2-1.3-1.9-1.8-2-.4-.2-.4-.2 0-.2s.4-.3.3-1c-.1-1.2.5-2.7 1.1-3 .2 0 .4-.2.4-.4 0-.8 3.8.1 4.2 1 .2.4.3 0 .3-1.7 0-1.2 0-2.5.2-2.8.1-.5 0-.6-.4-.6-.6 0-1.4.8-1.3 1.3 0 .2.3.7.7 1 .7.8.6 1.2-.4 1.2-.7 0-.8 0-.7-1 0-1 0-1.1-1.2-.5-.9.4-5.6.7-5.6.4 0-.2-.3-.3-.5-.4l-.6.1c0 .1-.2.3-.4.3-.3 0-.3-.2-.1-.5.3-.6-.3-1.3-.8-1-.4.3-.8-.4-.6-1 0-.2 0-.5-.2-.6a2 2 0 0 1-.5-.8c-.2-.5-.4-.6-.7-.5-.2 0-.4 0-.5-.2-.1 0 0-.2.2-.2s.3-.6.3-2.4c0-2.6-.2-3-1.3-2.3-.5.4-.6.3-1.3-.5-.4-.5-.7-1-.7-1.3 0-.5-.5-.5-1 0a3 3 0 0 1-1.2.4c-.7.1-.8.3-.8.7.1.5 0 .7-.9 1-1 .5-1.8.4-1.6-.2.1-.2 0-.5-.3-.7-.7-.5-.7-.9 0-.5l.7.8c0 .3.3.5.5.5s.3-.1.2-.3c0-.1.1-.4.4-.7.5-.4.5-.4-.4-1.1l-1.4-.9c-.5-.1-1.2 1.3-1.7 3.5s-.5 2.3 0 1.9c.1-.2.4-.3.5-.2l.9-.3c.6-.3.6-.3.5.2-.1.4 0 .5.6.6.4.1.8.3.8.5 0 .1-.2.2-.4 0-.3 0-.4 0-.4.4 0 .2-.1.4-.2.3 0-.1-.3 0-.5.3-.5.6-1 .7-.7.2 0-.3 0-.4-.3-.4s-.4-.2-.3-.3c.3-.5-.1-.8-.7-.5-.6.3-.7 1-.2 1 .3 0 .3 0 0 .3-.5.3-.7 2.4-.3 2.7.3.2.3.3 0 .6-.6.4-.7 3-.2 3 .2 0 .2.1 0 .4-.3.3-.5 2.6-.4 4.9 0 1 .2 1.4.5 1.4.4 0 .4 0 .1.2-.3.2-.3.6 0 2.8.4 3.4.8 5.2 1 5.2.2 0 .2.3.1.8 0 .7 0 .8.3.7h.5c0 .2-.2.3-.3.4-.2 0-.2.5-.1 1.3.1.9.3 1.2.6 1.1.2 0 .3 0 0 0-.3.2-.3.5.4 3 .3.8.5 1.3.7 1.3.1-.1.2-.4 0-.6 0-.2.1-.4.5-.4.5 0 .5 0 .4-.5-.1-.4 0-.5.3-.5s.4.1.3.5c-.2.6 0 .7.8.1.7-.5.9-.2.7.9-.2.9-.1 1 .5.7zm-.7-3c0-.2.2-.2.4-.1.3.2.3.3-.2.3-.2 0-.3 0-.2-.2zm-3-.3c0-.1 0-.2.2-.2.1 0 .2 0 .2.2v.3l-.4-.3zm1.3 0c-.5-.5-.4-.9.2-1.4.6-.6 1-.5 1.2.2.3 1.1-.7 1.9-1.4 1.2zM11 79.4c0-.1.1-.2.3-.2.1 0 .2 0 0 .2 0 .2-.1.3-.2.3l-.1-.3zm2.9-.2c0-.2.1-.3.3-.3.1 0 .2.1.2.3l-.2.2a.3.3 0 0 1-.3-.2zm-2.9-.6c-.4-.2-.3-1 .3-1.4.6-.4 1.1.1.9.9-.2.6-.7.8-1.2.5zm1.6-.8c0-.1.2-.2.6-.2.4 0 .5 0 .2.2-.6.4-.8.4-.8 0zm1.6 0c0-.3 0-.5.2-.6.4-.2.4.1 0 .6-.2.4-.2.4-.2 0zm-.9-1.3c0-.5-.2-.6-.9-.6-.7.1-.7 0-.2-.3.3-.3.5-.7.5-1.3 0-.4.2-.8.4-.9.2 0 .3 0 .2.2-.2.2 0 .2.6.1.7-.1.8 0 .8.4s.2.8.4 1c.5.3.3.9-.4.9-.4 0-.5.2-.5.5 0 .7-.8.7-.9 0zm2.2.3c0-.2.3-.3.7-.3.6 0 .6 0 .3.3-.5.3-1 .3-1 0zm-5.2-.5l.3-.3.1.3c0 .1-.1.2-.3.2-.1 0-.2-.1 0-.2zM16 76c0-.2.2-.3.3-.3v.3c0 .1 0 .3-.2.3s-.2-.2-.1-.3zm1-.5l.1-.4c.2-.1.4 0 .4 0v.5l-.5-.1zm-7.5-.7c0-.7.3-1 1-.8.6.3.3 1.3-.4 1.4-.5 0-.6 0-.6-.6zm1.8.4l.4-.4.4.1c0 .1-.1.3-.4.4h-.4zm6.8-1.4c-.4-.5-.4-.6 0-1 .7-.4 1.2-.3 1.4.2.1.4-.2 1.2-.7 1.3-.1 0-.5-.1-.7-.5zm-6.8 0l.6-.2c.5 0 .6 0 .2.3-.5.3-.8.3-.8 0zm-2.1-.7l.7-.5-.1.5c-.2.3-.5.5-.8.5-.3 0-.3 0 .2-.5zm7 0c0-.2 0-.3 0 0 .2.1.2.3 0 .4v-.3zm4 0c-.3-.3 0-1 .3-1 .4 0 .4 0 0 .3-.2.4-.2.4.5.3h.7c0 .3-1.3.7-1.5.4zm-9-1.2c-.1-.5-.3-.7-.7-.5-.6.2-.6 0-.2-.7.3-.4.3-.6 0-.8-.5-.6-.3-.8.8-.7 1 0 1.2 0 1.1-.5 0-.5 0-.5.2 0 .2.3.2.6-.1 1-.3.4-.4.9-.3 1.1.1.3 0 .6-.3.8-.5.4-.5.4 0 .4.3 0 .4.1.3.3-.3.4-.6.3-.8-.4zm10.7.4c0-.2.2-.3.4-.3s.4.1.4.3c0 .1-.2.3-.4.3s-.4-.2-.4-.3zM10 72c0-.1.1-.2.3-.2.2 0 .2 0 .1.2 0 .2-.2.3-.3.3V72zm3.3 0l.3-.2.1.2c0 .2-.1.3-.3.3-.1 0-.2-.1 0-.3zm2-.3c-.2-.4-.4-.5-.7-.4-.6.3-1 0-.6-.5.3-.3.3-.5 0-1-.5-.9-.2-1.1.7-.7.6.2.8.2 1.1-.1.5-.4 1.4-.6 1.4-.2l-.3.6c-.2.3 0 .5.3 1 .5.5.5.6.1.6-.2 0-.7.3-1 .6-.7.8-.9.9-1 .1zm1.9.1l.5-.5c.4-.3.5-.3.5 0 0 .2-.2.5-.4.6-.5.2-.6.2-.6 0zm2.7-.3c.1-.2.3-.3.5-.3.1 0 .2.1 0 .3 0 .1-.2.3-.4.3v-.3zm2.6-.3c0-.5 0-.6.2-.2.4.5.4.8 0 .8l-.2-.6zm.9-.7c0-.4 0-.7-.3-.8-.4-.2-.4-.4-.2-.6.2-.2.3-.2.5 0 0 .2.3 0 .7-.3.8-.7 1-.6 1 .2 0 .3.1.7.3.8.4.2.3.6-.2.6-.2 0-.4.2-.4.4 0 .3-.2.4-.8.4-.7 0-.8-.1-.6-.7zM9 70.7l.3-.3c.2 0 .2.2.1.3l-.3.3v-.3zm12.2 0l.5-.5c.2 0 .3 0 .2.2 0 .2-.2.4-.4.5-.2 0-.3 0-.3-.2zm-1.5-.2c-.5-.2-.4-1 .1-1.4.4-.2.7-.1 1.1.2.6.4.6.4.1.9-.4.5-.7.6-1.3.3zm7.2-1.4c-.4-.3-.4-.4-.1-.5.5-.4 1-.3 1 .1 0 .5-.3.7-.9.4zm-9.1-.5c0-.2 0-.3.2-.3s.2.1.2.3l-.3.2-.1-.2zM8 68.3c0-.1 0-.2.2-.2s.3 0 .3.2-.1.3-.3.3a.3.3 0 0 1-.2-.3zm7 0l.3-.2v.2c0 .2 0 .3-.2.3s-.2-.1-.1-.3zm8.5.1V68c0-.2 0-.4-.2-.4l-.2.4c0 .3-.3.4-1.1.4-.6 0-1-.2-1-.3 0-.1.1-.2.3-.2.5 0 .7-.7.5-1.5-.2-.9.1-1.9.7-2 .2-.2 1-.3 1.6-.4h1.2v1c0 .4.2 1 .4 1 .3.2.1.5-.4 1a3 3 0 0 1-1.1.6c-.2 0-.4.3-.4.6s-.2.4-.3.3zm-6.8-.3c0-.2.2-.3.4-.3s.4.1.3.3l-.4.2c-.2 0-.3-.1-.3-.2zm3.2 0l.2-.4h.3c0 .2-.1.4-.3.5L20 68zm6.2-.7c0-.8.1-.9.6-.2.2.4.2.6-.1.7l-.5.2v-.7zm-7.6.2l-.2-.8c0-.5.1-.6.6-.6.8.2 1.2 1 .7 1.3-.5.3-.9.4-1.1.1zm-6.6-.4c0-.2.3-.5.6-.7.4-.3.5-.2.5.2 0 .3-.2.6-.5.6-.3.1-.6 0-.6-.1zm3 0c-.5-.5-.4-.7.3-.8.7-.2 1.4.3 1 .8-.4.4-.9.4-1.3 0zm-6.4-.5c0-.1-.3-.4-.6-.5-.6-.2-.6-.2.1-.2h1l.1.6c.1.2 0 .4-.1.4-.2 0-.3-.1-.3-.3zm2.1 0c0-.1.1-.2.3-.2.2 0 .2 0 .1.2 0 .2-.2.3-.3.3v-.3zm3 0c0-.1 0-.2.2-.2s.2 0 .1.2c0 .2-.2.3-.3.3v-.3zm3.8-.2c0-.4-.3-.5-.7-.4-.4.1-.5 0-.5-.4 0-.3-.1-.6-.3-.7-.5-.3-.3-.7.4-.7.4 0 .7 0 .7-.2s.2-.3.5-.3c.4 0 .5.1.4.4 0 .3 0 .4.3.4.2 0 .5 0 .5.2.1.2 0 .3-.4.3s-.5.2-.4.8c0 1-.3 1.4-.5.6zm3.3.2c0-.1.1-.2.3-.2.1 0 .2 0 0 .2 0 .2-.1.3-.2.3l-.1-.3zM9 66c0-.2.2-.3.3-.3.5.2.6.8.1.8A.4.4 0 0 1 9 66zm2.1-.6l.3-.3c.2 0 .3.2.3.3 0 .2-.1.3-.3.3a.3.3 0 0 1-.3-.3zm2.2-.2c-.2-.3-.3-.8-.2-1 0-.1.2 0 .4.4.2.3.3.7.2.9 0 .2-.2 0-.4-.3zm1.7 0c0-.2.2-.3.3-.3v.2c0 .2 0 .3-.2.3s-.2-.1-.1-.3zm4.7 0l.3-.3.1.2c0 .2 0 .3-.2.3s-.2-.1-.2-.3zm.8 0l.3-.3.1.2c0 .2 0 .3-.2.3s-.3-.1-.2-.3zm-6.4-.5c-.2-.2-.2-.4 0-.5 0 0 .2 0 .3.3.2.6.1.7-.3.2zm-5.7 0c-.2 0-.4-.2-.4-.4 0-.4 1-.3 1.3.2.3.4.1.5-.9.2zm2-.2c-.2-.2-.6-.4-.9-.4-.5 0-.6-.4-.2-.7.2 0 .2-.5.1-.8-.1-.6 0-.6.6-.6s.8 0 .8-.5c0-.3.2-.6.4-.6s.3.5.2 1.6c0 .5.2.9.5 1 .4.3.4.3-.2.8-.8.7-1 .7-1.3.2zm10-1c-.3-.5-.4-.5-.7-.1-.4.5-.5.5-.7 0-.1-.3 0-.7.2-1 .6-.5.3-1-.4-.8-.6.2-.6.2-.1-.4.3-.4.6-.5 1-.4.5.1.8 0 1.2-.5.7-1 .8-.9.6.1-.1 1 .5 1.7 1.2 1.4l.4.1c0 .2-.4.4-.8.6-.6.2-.8.4-.8 1 0 .7-.7.8-1.1 0zm-6.2-.5c0-.4-.3-.8-.6-1l-.8-.2c-.3 0-.3-.2 0-.5.2-.3.3-.7.2-1 0-.4.2-.8.4-1 .3-.3.4-.2.4.1 0 .6.6.7 1.1.3.6-.6 1-.3.8.6 0 .5 0 .8.3 1 .6.3.5.6-.2.8-.4 0-.7.3-.7.5l-.4.8c-.3.4-.3.4-.5-.4zm-2 0c0-.3.8-.9 1-.7 0 .1 0 .4-.3.6-.4.4-.7.5-.7.2zm-4-.4c-.3-.7-.3-.9.3-.7.3 0 .5.2.5.2 0 .3-.3 1-.5 1l-.4-.5zm8.6.2c0-.2 0-.3.2-.3.1 0 .2.1.2.3v.2c-.2 0-.3 0-.4-.2zm7.8 0h.5c0 .2 0 .2-.4.2-.3 0-.3 0-.1-.2zm-7.9-.8c0-.2.1-.3.3-.4.1-.1.2 0 .2.2s0 .4-.2.4-.3 0-.3-.2zm8.6 0c0-.2.3-.3.4-.3.1 0 .3.1.3.3 0 .1-.2.2-.5.2-.2 0-.3 0-.2-.2zM24 61c-.4-.3 0-1 .7-1 .2 0 .3-.1.2-.2-.1-.2 0-.3.2-.3.3 0 .4.1.3.5-.1.4 0 .6.5.7.4 0 .6.3.5.4 0 .2-.3.1-.5 0-.3-.3-.5-.3-.7 0-.4.3-.8.3-1.2 0zm-12-.5l.3-.2c.2 0 .2.1.1.2 0 .2-.2.3-.2.3-.1 0-.2-.1-.2-.3zm-4-.2c-.3-.2-.2-.4.3-.9.3-.3.5-.7.4-.8-.1-.1 0-.3.4-.3.3-.1.6-.3.6-.5 0-.1.1-.5.4-.7.3-.4.3-.5-.3-1.1-.8-.9-.6-1 .4-.7.7.2.9.2 1-.1.5-.7.8-.5.8.3 0 .6.2.9.6 1 .6.2.6.5 0 .9-.4.1-.5.3-.5.4.1.1 0 .3-.1.5-.3.3-.4.3-.9 0s-1.2-.2-1.3.3c0 .1-.2.2-.4.1-.3 0-.3 0 0 .4.9 1-.2 1.9-1.3 1.2zm9.2-.1a3 3 0 0 1-.5-1c-.1-.6 0-.7.4-.9l.7.1c0 .2.3.3.5.3.4 0 .5.4 0 .7 0 0-.1.2 0 .4 0 .2 0 .4-.2.5-.5.3-.6.3-1-.1zm5.2 0s0-.1.2 0c.2 0 .3.2.3.2l-.3.1c-.1 0-.2 0-.2-.2zm4.2-.2c0-.3.1-.5.3-.5.1 0 .2.2.2.5s-.1.5-.2.5c-.2 0-.3-.2-.3-.5zm-16-.3c-.3-.4 0-.5.4-.2.2.1.2.2 0 .4-.1 0-.3 0-.4-.2zm18.6 0l.3-.2c.1 0 .3.1.3.3l-.3.2a.3.3 0 0 1-.3-.2zm-9.9-.2c.1-.2.3-.2.4-.1.4.2.3.4-.1.4-.3 0-.4-.2-.3-.3zm9 0c.1-.2.3-.3.4-.3.2 0 .3.1.3.3 0 .1-.2.3-.4.3-.3 0-.4-.2-.3-.3zm-13.5-.8c0-.2 0-.3.3-.3.2 0 .3.1.2.3l-.2.3-.3-.3zm5.5-.3c-.5-.2-.6-.3-.4-.5.3-.3 1.4.2 1.4.6 0 .2-.2.2-1-.1zm11.3-.5c0-.1.1-.3.3-.3.2 0 .2.2.1.3l-.3.3V58zm-23.1-.5c0-.2.2-.3.2-.3.1 0 .2.1.2.3l-.3.2c-.2 0-.2 0-.1-.2zm7.5-.2c-.2-.2-.6-.4-1-.4-.6 0-.8-.3-.3-.6.2-.1.2-.3 0-.6-.6-.7-.1-1.1 1-1 1 0 1.2 0 1.3.6 0 .3.3.7.5.8.2.3.2.5-.3 1-.7.7-.8.8-1.2.2zm2.7-.1c0-.1 0-.3.2-.3s.2.2.2.3l-.3.3-.1-.3zM8 56.4c0-.1.2-.3.4-.3s.3.2.2.3c0 .2-.2.3-.4.3-.1 0-.2-.1-.2-.3zm5.5-.3l.3-.2c.2 0 .2.1.1.2 0 .2-.2.3-.3.3v-.3zm5-.5c-.2-.1-.2-.2 0-.4.4-.2.8 0 .8.4 0 .3-.2.3-.7 0zm-10.3-.8l.3-.2c.1 0 .3 0 .3.2s-.2.3-.3.3a.3.3 0 0 1-.3-.3zm5.2 0c-.1-.1 0-.2.3-.2.2 0 .3 0 .2.2 0 .2-.2.3-.2.3l-.3-.3zm-2.5-.2c0-.2.1-.3.2-.3.2 0 .3.1.3.3 0 .1-.1.2-.3.2a.3.3 0 0 1-.2-.2zm1-.2c-.3-.2 0-.6.3-.6.2 0 .3.1.3.4 0 .4-.3.5-.6.2zm5.3-.5c-.2-.3-.2-.5 0-.8.5-.5 1-.5 1.3 0 .1.4-.4 1.2-.7 1.2-.2 0-.4-.2-.6-.4zm-4.2-.5l.4-.4c.2-.2.4-.2.5.1 0 .3 0 .4-.4.4l-.5-.1zm3-.2c0-.4.5-1.3.8-1.3.2 0 0 .2-.2.5l-.4.7-.1.3c-.1.1-.2 0-.2-.2zm-4.9-1c0-.2.2-.3.3-.3.2 0 .2.1.1.3l-.2.2c-.1 0-.2 0-.2-.2zm3.5-.2c-.1-.3-.3-.3-.3-.2 0 .2-.1.4-.3.4-.4 0-.4-.9-.2-1.9l1-.1 1.4-.2c.3-.2.5-.2.5 0s-.2.3-.4.3-.4.3-.4.6c0 .4-.2.9-.5 1.1-.5.5-.5.5-.8 0zm2.9 0c0-.2.1-.4.3-.4l.2.3c0 .2 0 .3-.2.3a.3.3 0 0 1-.3-.3zm-.3-.9c0-.1.1-.2.3-.2.1 0 .3 0 .3.2s-.2.3-.3.3a.3.3 0 0 1-.3-.3zM8.8 51h.5c.1.1 0 .2-.3.2s-.4 0-.2-.2zm3-.3c0-.2.2-.3.4-.3s.3.1.2.3c0 .1-.2.3-.4.3l-.2-.3zm6.5 0c0-.2.2-.3.2-.3.1 0 .2.1.2.3l-.3.3c-.2 0-.2-.2-.1-.3zM9 50.3l.3-.2c.2 0 .2 0 .1.2 0 .2-.2.3-.3.3v-.3zm5.5-.8l.4-.2c.1 0 .2 0 0 .2 0 .2-.2.3-.3.3-.2 0-.2-.1-.1-.3zm.9-.2c0-.2.1-.3.2-.3.2 0 .3.1.3.3 0 .1-.1.2-.3.2a.3.3 0 0 1-.2-.2zm-1.2-.8c0-.2.3-.3.4-.3.2 0 .2.1.1.3l-.4.2c-.2 0-.2 0-.1-.2zm-4-.5c0-.4.4-.4.4-.1 0 0 0 .2-.3.3-.1 0-.2 0-.2-.2zm-.5 36c-.2-.2-1-.2-1.7 0l-1.5.1h1.7c1 0 1.6 0 1.5-.1zm110.7 0c0-.4-.2-.5-1.4-.7l-1-.3 1 .6c1.3.5 1.5.6 1.5.2zm-111-.6l.2-.2c0-.2-.8-.3-1.6-.3-.9 0-1.6.1-1.6.2 0 .5.5.6 1.7.5l1.4-.2zm111.3-.5c0-.3-.4-.4-1.6-.6-.7-.1-.6.4 0 .6 1 .3 1.6.3 1.6 0zM9.4 82.3c0-.1-.7-.2-1.6-.2-.9 0-1.6 0-1.6.2s.7.3 1.6.3c.9 0 1.6-.1 1.6-.3zm99.2-3c-.2-2.4-1.2-6.5-1.6-6.9l-.2-1c0-.7-.4-1.7-2-5.7l-.5-1.4 1-1.5c1.3-2.2 1.7-3.7 1.6-6.8 0-3.1-.5-5-2.1-8.3a20.5 20.5 0 0 1-2.4-8.9 19 19 0 0 0-1.8-7.5c-.2-.2-1.4-.9-2.7-1.5a36.3 36.3 0 0 1-3.4-1.8c-1-.4-.1.3 1.8 1.3 2.7 1.4 3.2 1.9 4.3 3.5 1 1.5 1 1.6 1 4.4.2 3.8.7 6.3 2.2 9.7 1 2.6 1.7 4.3 2.4 6.8.3.7.3 1.8.2 3.6-.2 2.5-.4 3-2.2 6l-.6 1 .8 1.5c.4 1 1 2.3 1.1 3l2.1 7c.3.5.5 2.3.6 4 .2 2 .3 2.7.4 2.3.2-.3.2-1.5 0-2.8zm12.3 2.8c-.2-.3-2-.9-2.2-.7-.2.2.2.5 1 .7 1.3.3 1.4.3 1.2 0zM9.3 81.5l-1.6-.2c-.8 0-1.5.1-1.5.2 0 .2.7.3 1.6.3 1 0 1.6 0 1.5-.3zm112-.1c0-.2-1.7-1-2.1-1-.5 0-.3.5.5.8.8.3 1.6.4 1.6.2zM7.7 80.8l-1.3-.2h1.2c1-.1 1.3-.2 1.3-.5 0-.2-.3-.4-.6-.4-.5 0-.5-.1-.2-.2.9-.2.5-.7-.3-.5a9 9 0 0 1-1.5.2c-.5 0-.6 0-.4.7.2.5.2.9.1 1h3zm113.9-.2c0-.2-1.7-1-2.1-1-.6 0-.3.6.4.8.8.3 1.7.4 1.7.2zm-.2-.9c-.4-.3-2-.8-2-.6 0 .2.4.4 1 .5 1 .4 1.3.4 1 .1zm-7.8-1.3c4.3-1.6 6.1-2.6 6.1-3.4 0-.2-1 .2-2.4 1a33 33 0 0 1-7.7 2.9c-.2 0-.5.2-.5.4 0 .6.8.5 4.5-.9zm-105.8.2c.5-.1.3-.2-1-.2-1 0-1.4 0-1.1.2.5.3 1.2.3 2.1 0zm114.2-.3c0-.2-.4-.4-1.2-.4-1.3 0-1.3.2 0 .6 1 .3 1.1.3 1.2-.2zM8.3 77.8c0-.1-.6-.2-1.5-.2H5.3l1.4.2 1.6.3v-.3zm114-.5c0-.2-1.8-.6-2-.4l.8.4c1.2.3 1.3.3 1.3 0zM7.6 77.1H6l.7.1h.8zm.5-.6c-.2-.5-2.8-.7-2.8-.2 0 .2.4.4 1.4.4 1.2 0 1.5 0 1.4-.2zM113 75a54.3 54.3 0 0 0 7.8-4.9c0-.5-.1-.4-1.3.4-.7.6-1.4 1-1.5 1a72 72 0 0 0-9.4 5c0 .1.1.3.3.3l4-1.8zm9.6 1.2c-.1-.5-.5-.7-1.3-.7-.6 0-.6 0-.1.2.3.2.4.3.2.3-.3 0 .5.5.9.5.2 0 .3-.1.3-.3zM7.2 75.5a7 7 0 0 0-1.6 0c-.4 0-.1.1.8.1h.8zm115.4-.4l-1-.3h-.7l1 .5c.6 0 1 0 .7-.2zM7.8 74.9c0-.1-.7-.2-1.6-.2-1 0-1.5 0-1.4.2 0 .2.8.3 1.6.3s1.4-.1 1.4-.3zm-.5-.8c-.5-.3-2.7-.3-2.7 0 0 .1.7.2 1.5.2 1 0 1.4 0 1.2-.2zm115.6 0c0-.2-1-.8-1.6-.8-.5 0-.2.6.3.8.9.4 1.3.4 1.3 0zM7.3 73.3c-.6-.3-3-.3-2.8 0 0 .2.8.3 1.7.3 1 0 1.4 0 1-.3zm103-.9l3.7-2c3.8-2 6.8-4.1 6.8-5 0-.7-.4-.6-1 0-1.3 1.5-7 4.9-11 6.6-1 .4-1.2.6-1 1 .2.6.8.4 2.5-.6zm12.8.5c0-.2-.2-.3-.5-.3h-.3c0-.2-.1-.3-.4-.3-.7 0-.7 0-.2.6.6.6 1.4.6 1.4 0zM7 72.7c-.6-.2-2.7-.3-2.7-.1 0 .1.7.2 1.5.2s1.4 0 1.2-.1zm116.2-.7c.1-.1-.2-.2-.8-.2-1 0-1 0-.3.2l.9.3.2-.3zM6.9 72c-.7-.2-2.8-.3-2.8-.1 0 .1.7.2 1.5.2.9 0 1.4 0 1.3-.1zm0-.5l-1.5-.3c-1 0-1.2 0-.9.1.5.2 2.7.4 2.5.2zm116.5-.4c0-.2-.3-.3-.8-.3-.4 0-.8.1-.8.3l.8.2c.5 0 .8 0 .8-.2zM7 70.7c0-.1-.3-.3-.6-.3l-1.6-.1c-.8-.1-1-.1-.8 0 .4.6 3 .8 3 .4zm116.1-.4h-.6.6zM6.7 69.9L5 69.7c-1.2 0-1.2 0-.4.2 1.5.3 2.6.3 2.1 0zm39.8-4.8c3.1-3 4.1-4 4.9-5.5.5-1 1.4-2.4 1.9-3l1.8-2.3c1.4-2 2.8-3.3 4.2-4.2.8-.5 1.4-1 1.3-1.1 0-.1.3-.6 1-1 1-1 2.1-2.5 1-1.7l-1.1 1c-.4.4-1 .6-1.1.6-.3-.1-1 .3-1.8.9-.8.5-1.7 1-2 1-.6 0-2.5 1.9-2.5 2.5h1c.8 0 .9 0 .6.3l-1.3 1c-1.1.5-2.3 1.9-2 2.3a9 9 0 0 1-1.6 2.5 107.4 107.4 0 0 1-8.4 9.8c-1.8 1.7-1.8 1.7-.8 1.2.6-.3 2.8-2.2 5-4.3zm77 4.5c.2-.1-.2-.2-.9-.2-.6 0-1 0-.9.2.1.2.5.3 1 .3.4 0 .8-.1.9-.3zm-117-.5c-.5-.3-2.7-.3-2.7 0 0 .2.7.3 1.6.3 1 0 1.4-.1 1-.3zm102.2-.7a74 74 0 0 0 6.8-4.5 79.4 79.4 0 0 0-8.6 4.4c-.2 0-.4.2-.4.4 0 .6.6.5 2.2-.3zm15 .4l-1-.2c-.7 0-1 0-1 .2.1.2.6.3 1 .3.6 0 1-.1 1-.3zM6.5 68.3c-.6-.3-2.7-.3-2.5 0 0 .2.8.3 1.5.3 1 0 1.3-.1 1-.3zm117.2-.2c0-.2-.5-.3-1-.3-.7 0-1 0-1 .3l1 .2c.6 0 1-.1 1-.2zM5.4 67.5l-1-.2c-.6 0-.6 0-.3.2.2.2.7.3 1 .3.6 0 .6 0 .3-.3zm1-.2c0-.2-.2-.3-.5-.3-.6 0-.6 0 0 .3l.5.2v-.2zm117.2 0c0-.2-.3-.3-.8-.3s-1 .1-1 .3l.8.2 1-.2zm-117-.8c0-.2-.8-.3-1.7-.3-1.3 0-1.4 0-.5.3 1.4.3 2.4.3 2.2 0zm117-.2c0-.2-.2-.4-.8-.4-1 0-1.2.3-.8.7.4.3 1.7.1 1.7-.3zM6.3 65.6c0-.1-.6-.2-1.4-.2-1 0-1.2.1-.8.3.6.2 2.2.2 2.2 0zm117.5-.2c0-.1-.5-.3-1-.3-.7 0-1 .1-1 .3.1.2.6.3 1 .3.6 0 1-.1 1-.3zM6.5 65c-.5-.3-2.7-.4-2.7 0 0 0 .7.2 1.6.2 1 0 1.4 0 1-.2zm117.3-.6l-.8-.2-.8.2c0 .2.3.3.8.3.6 0 1 0 .8-.3zM6.1 64.1c-.8-.3-2.3-.3-2.3 0l1.4.2c1 0 1.3 0 .9-.2zm.4-.7c-.3-.2-2.7-.4-2.7-.2s.6.4 1.3.4c1.2 0 1.6 0 1.4-.2zm117.2.2c0-.2-.5-.3-1-.3-.6 0-1.1.1-1.1.3l1 .2c.6 0 1-.1 1-.2zM6.5 62.8c0-.3-2.1-.6-2.5-.3-.2 0 .2.2.8.3 1.6.2 1.7.2 1.7 0zm112.7-1.5c.8-.8 1.4-1.5 1.3-1.6 0-.1-1 .6-2 1.6-2 2-1.6 2 .7 0zm4.6 1.3l-1-.3c-1 0-1.3.1-1 .5.1.3 2 .2 2-.2zM6.5 62c0-.3-1-.6-2-.6s-.8.5.3.6a70 70 0 0 1 1.7 0zm117.2-.3c0-.1-.5-.3-1-.3-.6 0-1.1.2-1.1.3 0 .1.5.3 1 .3.6 0 1-.2 1-.3zM6.6 61.2c.1-.2-1-.6-2.1-.6-1 0-.8.5.3.6a57.8 57.8 0 0 1 1.8 0zm116.7-.2c.7-.3.4-.6-.6-.6s-1.6.3-1.2.6c.2.2 1.2.2 1.8 0zm-83-.5c0-.2 0-.4-.2-.4s-.3.2-.3.4.1.4.3.4l.2-.4zm-34-.4c-1-.3-2.7-.3-2.2 0 .2.2 1 .3 1.6.2 1 0 1 0 .5-.2zm117.3-.4c.4-.3-.1-.4-1.2-.2-1.4.2-1.4.7 0 .5a4 4 0 0 0 1.2-.3zm-117-.4c-.4-.3-2.8-.6-2.8-.3 0 .5.4.6 1.7.6.8 0 1.3-.1 1.1-.3zm103.6-1.7c4.8-3.4 8.5-6.7 8.5-7.3 0-.4-.8.1-3.2 2.2a43.3 43.3 0 0 1-7.5 5.8c-.4.2-.7.5-.7.8 0 .6.2.5 2.9-1.5zm13.2 1.3c0-.2-.4-.2-1-.2l-1 .3h1l1-.1zM6.7 58.6c0-.3-1.2-.6-2.1-.6-.8 0-.6.5.2.6 1.4.2 2 .2 2 0zm46.2-.2c.1-.4.1-.4-.2-.1-.5.3-.5.5-.2.5l.4-.4zm70.5-.4c0-.1-.4-.3-1-.3s-1.1.2-1.2.3c-.1.2.3.3 1 .3s1.2-.2 1.2-.3zM6.7 57.5c0-.2-.2-.3-.4-.3-.3 0-1 0-1.4-.2-.5 0-.8 0-.8.2s.7.4 2 .5c.3 0 .6 0 .6-.2zm116.6-.3c.1-.2-.3-.3-1-.3s-1.3.2-1.3.3c0 .1.5.3 1 .3.7 0 1.2-.2 1.3-.3zM6.7 56.7c0-.2-.4-.4-1-.5-1.3-.2-1.4-.2-1.5.2-.1.2.5.3 2 .5.3 0 .5 0 .5-.2zm116.7-.5c0-.3-.2-.3-1.2-.3-.7 0-1.3.3-1.4.5 0 .2.2.3 1.2.2.7 0 1.3-.2 1.4-.4zM6.7 55.9c0-.3-.2-.4-1.3-.7l-1 .1c0 .2.4.4 1 .5 1.3.4 1.3.4 1.3.1zm26.3-.2c.3-.6.2-.7-.2-.3-.4.3-.5.7-.2.7.2 0 .4-.1.4-.4zm90.2-.3c0-.2-.6-.3-1.2-.3-.7 0-1.2.1-1.2.3 0 .1.5.2 1.2.2l1.2-.2zM6.7 54.9c-.6-.4-2-.6-2-.4 0 .3.7.5 1.8.5.5 0 .5 0 .2-.1zm116.2-.3c.3-.2 0-.3-1-.3-.8 0-1.4.1-1.4.3 0 .3 1.9.3 2.4 0zm-88.5-1.1c.4-.8.4-1.1.2-1.5-.3-.9-1-.2-1.2 1.3-.2 1.5.1 1.6 1 .2zm-.5-.8l.2-.3.2.3c0 .2-.2.3-.3.3-.2 0-.2-.1-.1-.3zM6.9 54c-.4-.3-2.3-.6-2.3-.3s.6.5 1.7.6c.5 0 .7-.1.6-.3zm115.5-.2c.5-.2.4-.3-.6-.3-.7 0-1.3.1-1.3.3 0 .3 1 .3 1.9 0zM6.6 53c-1-.4-1.7-.5-1.7-.1 0 .2.9.4 2 .4.4 0 .3 0-.3-.3zm115.9-.1c.4-.2.2-.3-.7-.3-.7 0-1.3.1-1.4.3-.2.3 1.4.3 2.1 0zM7.3 52.5c0-.2-.5-.4-1-.6-1.3-.3-1.5-.3-1.3 0 .1.6 2.3 1 2.3.6zm115.3-.5c0-.3-.1-.3-1-.2-1.4.3-1.7.7-.3.6.7 0 1.2-.2 1.3-.4zM7.4 51.4c-.4-.3-2.2-.6-2.2-.3l1 .5c1 .2 1.6.1 1.2-.2zm113.5-.2c-.2-.2-1.4.2-1.4.4s.3.2.8 0c.4-.2.7-.3.6-.4zM110.2 49a20 20 0 0 0 3.5-3.6c.3 0 2.4-2.3 2.5-2.8.2-.5-.5-.3-1 .3-.2.3-.6.5-.7.3l.1-.3c.2 0 .4-.2.4-.4 0-.1-.2-.2-.4-.1-.3 0-.4 0-.4-.2s-.1-.1-.4 0c-.2.3-.4.3-.5.1-.1-.1 0-.4.3-.5.4-.3.4-.3 0-.3-.3 0-.5-.1-.5-.3 0-.1.1-.2.3-.2l.2-.8c0-.4.2-.8.3-1 .2-.2.2-.5-.2-.9-.4-.3-.6-.6-.5-.7.2-.4-.6-1.4-1-1.2l-.4-.1c0-.2.1-.4.3-.4.3-.1.3-.2 0-.5-.3-.4-.4-.4-1.8-.5-.7 0-.8-.1-.7-.7 0-.4 0-1-.2-1.2-.3-.5-.2-.5.3-.2.3.1.6.2.7.1.2-.2-.7-1.2-1.3-1.3-.3-.1-.4-.3-.3-.5.2-.3-.7-1.2-1.1-1-.2 0-.4 0-.5-.2-.1-.2 0-.3.1-.3.2 0 .1-.2-.2-.5-.3-.3-.6-.6-.6-.8a4 4 0 0 0-1-1l-1.3-1.6c-.4-.7-1.3-.8-1.5-.3 0 .2-.2.3-.3.2-.1-.2 0-.5.2-.7.3-.4.4-.6.2-.7-.3-.2-1.2 1-1 1.4.2.2 0 .3-.1.2-.2 0-.7.3-1.1.8l-.7.8.6.2c.5.1.7.3.7.8 0 .7 0 .7-.8.6-.7-.2-.8-.2-.5.2.2.3.2.4 0 .4-.6 0-1-.9-.6-1 .2 0 .3-.3.3-.5 0-.4-.1-.3-.6.2-.4.3-.7.7-.7.8l1.2.9c.6.3 1.3.9 1.5 1.2.3.3.6.5.8.3.5-.1.5-.2.2-.8-.2-.4-.1-.6.1-.9.4-.2.5-.2.9.3.3.4.5.5.8.3.6-.3 1.4.1 1.4.7 0 .3-.2.3-.6.2-.6-.2-.6 0 0 1l.4.8-.9-.1h-1c-.2.5-.8.3-.8-.2 0-.3-.2-.6-.3-.6-.2 0-.3.4-.2 1 .2 1.2.6 1.7 1 1.2.1-.2.3-.3.5-.2.3.2.2.3-.2.4-.6.3-.7.7-.3 1.9l-.1 1c-.2.4-.1.7.2 1.2l.2.7c-.5 0-.4 2 0 2.3.3 0 .4.3.3.5a7 7 0 0 0 1 3.5c.2 0 .4.3.4.4 0 .2 1.3 3.6 1.6 4 0 .1.5 0 1.1-.3.9-.3 1.1-.3 1.1 0 0 .2-.5.5-1 .7-1 .3-1.3.5-1 .9.4.3.7.1 3.6-2.4zm-3.1-.1c-.3-.1-.6-.4-.6-.5 0-.2-.2-.3-.4-.3-.6 0-.5-.2.7-1.6.5-.5 2-.7 2-.2 0 .1.3.2.6.1.4-.1.4 0-.1 1-.5 1.2-1 1.8-1.5 1.7 0 0-.4 0-.7-.2zm2.2-.3c-.1-.1 0-.2.2-.2.3 0 .4 0 .3.2 0 .2-.2.3-.3.3l-.2-.3zm.4-1.3c0-.1.1-.3.4-.4.3-.1.3-.3-.1-.9-.3-.3-.3-.6-.1-.4.2 0 .7-.1 1.2-.5.9-.7 1.6-1 1-.4-.2.2-.2.4 0 .8.4.6 0 1.4-.9 1.5a2 2 0 0 0-.9.3c-.3.4-.6.3-.6 0zm-4.3-1.6l.3-.2c.1 0 .3 0 .3.2s-.2.3-.3.3a.3.3 0 0 1-.3-.3zm1.4-.6c0-.6-.5-.8-1-.4-.4.2-.7.2-1 0-.3-.1-.4-.3-.2-.3.6 0 .3-1-.4-1.4l-.7-.4.8-.4c.8-.4.9-.6.7-1.3 0-.6 0-1 .3-1.2.3-.3.4-.3.4.3 0 .7.6 1.4 1 1 0-.2.2-.3.4-.3.1 0 .1.1 0 .4-.4.3-.3.4.2.4 1 0 1.1.3.5 1-.6.5-.6 1.4-.1 2.5.1.4 0 .5-.4.5-.3 0-.5-.2-.5-.4zm1.8 0h.3l.2.2c0 .1 0 .2-.2.2s-.3-.2-.3-.3zm3.8.1c0-.1 0-.3.3-.3.2 0 .4.2.3.3l-.3.3-.3-.3zm-2.3-.3c-.1-.1 0-.2.2-.2.3 0 .4 0 .3.2 0 .2-.2.3-.3.3l-.2-.3zm3.3-.1c0-.2 0-.4.2-.4s.3.2.3.4-.1.4-.3.4l-.2-.4zm-4.4-.4V44c.2-.2.5.2.3.5 0 .3-.1.3-.3 0zm1.3-.5c0-.3-.3-.5-.6-.4-.7.2-.7-.2-.1-.7.3-.2.3-.6.2-1.3-.2-1-.2-1 .5-.7.4.1.6.4.5.5-.2.3.1.2.8-.1.7-.4 1.2 0 .6.5-.4.3-.4.5 0 1.1.4.8.2 1.2-.5 1-.3-.2-.5 0-.6.2-.2.6-.6.5-.8-.1zm3.2 0c-.5 0-1-.5-1-.9 0-.3.5-.2 1.3.5.8.6.7.7-.3.4zm-5.5-.5c-.2-.3-.2-.4 0-.5.5-.2.7-.1.8.3 0 .6-.3.7-.8.2zm1-1.6c.1-.2.3-.2.4-.2.4.3.3.4-.1.4-.3 0-.4-.1-.3-.2zm-5.3-.6l.3-.2.1.2c0 .2-.1.3-.3.3-.1 0-.2-.1 0-.3zm3.7-.6c-.3-.1-.6-.5-.6-.7 0-.7.3-.6.8.3l.4.7-.6-.3zm-3.6-.2c.1-.2.2-.5.1-.7 0-.2 0-.3.3-.3.5 0 .6.4.2.6-.2.1-.2.3-.1.5 0 0-.1.2-.4.2-.3 0-.3 0-.1-.3zm8.5.1c0-.4.5-1 .7-.8 0 .1 0 .4-.3.6l-.4.2zm-4.2-.6c0-.1.2-.3.4-.3s.3.2.2.3c0 .2-.2.3-.4.3-.1 0-.2-.1-.2-.3zm1.4 0l.3-.3.1.3c0 .2 0 .3-.2.3s-.3-.1-.2-.3zm1.2 0l.5.1c0 .1 0 .2-.4.2-.3 0-.3-.1-.1-.2zm1-.7c0-.2.2-.3.4-.2l.2.4-.2.2c-.2 0-.3-.1-.3-.4zm-4.2-.4c-.4-.4-.4-.5 0-.5.1 0 .4-.2.6-.6.3-.5.3-.5.6 0 .4.7.5 1.2.1 1.5-.5.3-.8.2-1.3-.4zm-3.8 0c0-.1 0-.2.3-.2l.5.2c.1.2 0 .3-.2.3s-.5-.1-.6-.3zm5.8-.2c0-.1.2-.3.6-.3.3-.1.7 0 .8 0 0 .1-.2.3-.6.3-.3.1-.7 0-.8 0zm-5-.7c0-.2-.1-.4-.4-.5-.8-.2-.6-1.6.2-1.7.7 0 1.2.7.9 1.3-.4.6-.3.8 0 .8s.5.1.6.3c.1.1-.1.2-.6.2-.7 0-.8 0-.7-.4zm5.6-.2c-.4-.2-.7-.4-.7-.6 0-.2.1-.3.3-.2.1 0 .4 0 .6-.3.4-.6 1.2-.4 1.2.4 0 .7-.5 1-1.4.7zm-3.7 0c-.3-.4-.2-.7.2-.7l.4.2c0 .4-.4.6-.6.4zm5.7-.2c0-.1 0-.2.2-.2.1 0 .3 0 .4.2.1.2 0 .3-.2.3-.3 0-.4-.1-.4-.3zm-4-.8l.2-.2c.2 0 .3 0 .3.2s-.1.3-.3.3a.3.3 0 0 1-.2-.3zm-1.3-.4c0-.3-.1-.4-.4-.1-.4.3-.4.2-.4-.2 0-.3 0-.6.3-.7.1-.1.2-.5 0-.8 0-.5 0-.7.3-.7.2 0 .4.1.4.3 0 .2.3.2.8.1.8-.1.8-.1.7.4-.1.3 0 .6.1.7.5.3.3 1-.2.8-.3-.1-.6 0-.7.2-.2.6-1 .5-1 0zm2.5-.6l.1-.4c.4-.3.7 0 .3.4-.1.2-.3.2-.4 0zm1-.3l.1-.3c.2 0 .3.2.3.3v.3c-.2 0-.3-.1-.4-.3zm-6.7-.3l.2-.2c.2 0 .3.1.3.2 0 .2-.1.3-.3.3a.3.3 0 0 1-.2-.3zm1.2 0c-.1-.1.1-.2.5-.2.8 0 .9.1.1.3h-.6zm-.3-1c0-.2.1-.3.4-.3.3 0 .5.1.4.3l-.4.3-.4-.3zm3.6-1c0-.2.1-.3.2-.3.2 0 .3 0 .3.2s-.1.3-.3.3a.3.3 0 0 1-.2-.3zm-2.8-.2c-.3-.4-.1-1 .4-1.2.5-.3 1.3.3 1.3 1 0 .3-1.3.5-1.7.2zm2.4-.7l.4-.2c.1 0 .2 0 .2.2s-.1.3-.4.3c-.2 0-.3-.1-.2-.3zm-.1-.8c0-.1 0-.2.2-.2s.3 0 .3.2-.1.3-.3.3a.3.3 0 0 1-.2-.3zm-1.8-.5l.1-.6c.4-.3 1.2 0 1 .4 0 .5-.8.6-1 .2zm-5-.8l.1-.4.4.1c.1.2 0 .3 0 .4h-.5zm3.3-.5c-.2-.2-.3-.3 0-.3l.4.3c.2.3.1.3-.4 0zm1.9 0c0-.3.5-.7.7-.5l-.3.5c-.3.2-.4.2-.4 0zm-3.3-.6c-.2-.2-.5-.3-.7-.3-.3.1-.3 0-.1-.1.2-.3.5-.3 1.1 0 .5.2.8.4.7.5-.3.3-.6.3-1-.1zm1.7-.3c-.5-.6-.1-1.3.6-1.2.4 0 .6.3.6.8 0 .7-.7 1-1.2.4zm-1.9-1.5c0-.6.6-.7 1-.1.3.2.3.4.1.4l-.7.1c-.3.1-.4 0-.4-.4zm-1.6 0s.3-.3.6-.3c.4-.2.5-.1.2.2-.3.4-.8.5-.8.1zm3.1-.5v-.4h.5l-.1.5-.4-.1zm-1-.6l.3-.2c.2 0 .3.1.3.2 0 .2-.1.3-.3.3a.3.3 0 0 1-.2-.3zm-70 22c-.7-1.2-1.4-2.1-1.5-2.1-.2 0-.6 0-.9-.2-.2 0 0 .2.6.7 1 .9 2 2.6 2.4 4.1.2.7.2.8.3.2 0-.3-.3-1.4-1-2.7zm89.3 2.5c.2-.6 0-.7-1-.5l-.8.2.6.3c.8.5 1 .5 1.2 0zm-115-.1c-.3-.4-1.9-.7-1.9-.3 0 .2.7.4 1.7.5.4 0 .5 0 .3-.2zm.5-.8c0-.3-2-.7-2.3-.4-.2.2 1 .6 1.7.6.3 0 .6 0 .6-.2zm114-.2c.2 0 .3-.2.3-.4 0-.3-1.2 0-2.1.5-.6.4-.6.4.5.2.6 0 1.3-.2 1.4-.3zm0-1.2c0-.2.1-.3-1.3.2-.6.2-1.2.4-1.2.6-.1.2.4.1 1.2-.1l1.3-.7zM8.1 49c0-.2-2-.8-2.3-.6-.3.3 0 .6.6.7 1.3.2 1.7.2 1.7 0zm11.5 0c.8-.5 2-2.4 1.8-2.8-.2-.4 0-.4.3-.3.2.1.7 0 1-.2l1.8-.7c1.4-.3 1.5-.5.9-1.1-.4-.4-.4-.5 0-.5s.5-.4.1-.6c-.3-.2-.3-1.5 0-2 .1-.2.4-.2 1.3 0 .7.3 1 .5.9.7-.1.1-.4.9-.5 1.7l-.3 1.5 1.3.4c1.2.4 1.3.3 1.3-.1l.1-.5.5-.1c.3-.1.6 0 .8.5 1 1.9.2-.8-.8-3-.8-1.5-.8-1.5-3.6-1.7-2-.2-3.6-.8-5-2a4 4 0 0 0-1.2-.8l-.4-.8-.6-2.4a9.2 9.2 0 0 1-.3-3.4 6 6 0 0 0 0-1.6l-1.3 1.7c-1.3 1.9-1.4 2.7-.3 2.6.8 0 1 .1.4.6-.3.4.2 1.3 1 1.6.5.1.4.6-.2 1-.4.2-.6.2-.7-.1-.2-.3-.2-.6-.2-.8.2-.5-.6-.7-1-.1-.4.5-.4.4-.6-.1 0-.4-.3-.6-.5-.6-.4 0-1.4 1.6-1 1.6l-.3.3c-.4.2-2.5 4.1-2.5 4.7l1-.2c.6-.3.7-.5.5-.6-.4-.1-.4-.2-.1-.8.2-.4.5-.7.8-.7.6-.2.9.6.5 1.3-.4.5-.4.5.8.6l1 .7c.4.5.9.7 1.2.6.5-.1.5 0 .6 1 0 .7 0 1-.4 1-.2 0-.5.3-.6.7-.4.9-.4.9.4.9s2.5 1.2 2.5 1.7c0 .2-.3.5-.6.7l-.5.5c0 .3.3.3.7 0zm.4-2.8c0-.2.1-.4.4-.3.6 0 .6.6 0 .7-.3 0-.4-.1-.4-.4zm-1.5-.6c-.1-.3.3-.6.5-.4.3.3.2.6 0 .6s-.4 0-.5-.2zm1.3-.7c-.8-.5-.8-1 0-2l.5-.8.8.6c.4.3.8.8.9 1.2 0 .3.3.6.5.6s.3-.2.2-.4c-.3-1 1.1-1.6 1.8-.8.6.8 0 1.3-1.5 1.4-.7 0-1.4.2-1.5.3-.4.4-1 .4-1.7-.1zm8.4-.6c-.3-.3-.3-.5 0-1.1.3-.6.4-.7.8-.5.3.1.6.2.8 0 .1 0 .2 0 .2.2 0 .1-.1.3-.4.4-.2 0-.4.3-.4.5 0 .6-.6 1-1 .5zM18.4 43c0-.1.1-.2.3-.2.1 0 .2 0 .2.2s-.1.3-.2.3a.3.3 0 0 1-.3-.3zm3.5-.7c-.5-.2-.4-1 0-1.2h.9c.6.6-.1 1.5-1 1.2zm1.8-.3c-.3-.5-.2-.6.4-.6.5 0 .7.1.6.5-.1.6-.7.7-1 0zm-4.8 0h.5c0 .2 0 .2-.4.2-.3 0-.3 0-.1-.2zm9.1-.3c.3-.3.7-.5.9-.5.2 0 .3.2.3.5 0 .4-.1.5-.8.5-.8 0-.8 0-.4-.5zm-11.4-.4c-.6-.2-1.1-1.2-1-2v-.5c-.2 0-.3-.3-.3-.5l.2-.6c.1 0 .2.2.2.5 0 .4.1.3.6 0 .3-.4 1-.6 1.8-.6.7 0 1.3 0 1.2.2-.2.3.2 1 .6.9h.3c0 .2-.1.4-.3.4-.2 0-.3.6-.3 1.1v1l-1.2.1h-1.8zm3.6-.2c0-.3.8-.3 1 0l-.4.3c-.3 0-.6-.1-.6-.3zm2.8-.5l.4-.2c.2 0 .3 0 .3.2s-.2.3-.4.3c-.3 0-.4-.1-.3-.3zm-2.2-.7c0-.3.6-.9 1-.9.6 0 .3.8-.4 1l-.6-.1zm-6.8-2c.1 0 .3-.1.4 0 .4.2.3.4-.1.4-.3 0-.4-.2-.3-.3zm1.5-1l.4-.2c.2 0 .4 0 .4.2s-.2.3-.4.3-.4-.1-.4-.3zm2.9-2.6c0-.2.1-.3.3-.3.1 0 .2.1 0 .3l-.2.3-.1-.3zm-.7-1.7c0-.4 1-.6 1-.2l-.6.4c-.3 0-.5 0-.4-.2zm.4-1.2c0-.2.1-.3.3-.3.1 0 .3.1.3.3l-.3.2a.3.3 0 0 1-.3-.2zm43.6 17.2c-.1 0-.3 0-.5.2-.3.3-.2.3.1.2.3-.1.4-.3.4-.4zm-53.4-.3c0-.3-1.9-.8-2.2-.5-.1.1.1.3.7.5 1.2.3 1.5.3 1.5 0zm112.7-.1c.9-.5.2-.5-1 0-.8.3-.9.3-.3.3.4 0 1-.1 1.3-.3zm.2-.8c.8-.4 0-.5-1-.2-1.3.5-1.6 1-.4.7a7 7 0 0 0 1.4-.5zM7.5 47c-.5-.2-1-.2-1.1-.2-.3.2.7.6 1.5.6.4 0 .2-.2-.4-.4zm112.9-.3c.5-.2.9-.5.8-.6-.1-.1-.5 0-.9.1l-1.2.4c-.2 0-.4.1-.4.3 0 .4.5.3 1.7-.2zM7.8 46.5c-.4-.3-1-.4-1.1-.3-.2 0 0 .2.6.4 1.3.4 1.6.3.5-.1zm1.3-.4c0-.2-1.4-.8-2-.8-.7 0-.4.5.5.7 1.1.4 1.5.4 1.5.1zm1-.3c0-.2-.1-.2-.2.1 0 .3 0 .5.2.4v-.5zm110.4-.1c.2-.2.3-.5.2-.6-.2-.2-2.3.7-2.3 1 0 .4 1.6 0 2.1-.4zM9.1 45.3c0-.2-1.2-.8-1.7-.8-.8 0 .2.6 1.7 1v-.2zm54.3 0l-.1-.3-.3.3v.3c.2 0 .4-.2.4-.3zm1.2 0l-.1-.3c-.2 0-.4.2-.5.3l.1.3c.2 0 .4-.2.5-.3zm55.6-.7c.2-.2.3-.4.2-.5-.2-.3-2 .6-2 1 0 .3 1.3 0 1.8-.5zm-110.7 0c.2-.4-1.5-1-2-.8-.2 0 0 .3.6.5 1.1.5 1.2.5 1.4.2zm110.2-.8c.4-.3.5-.5.4-.5-.4-.2-2.2.6-2.2 1 0 .3.9 0 1.8-.5zm-110 0c0-.3-1.9-1-2-.8a257.4 257.4 0 0 1 2 .7zm109-.5c.5-.2 1-.5 1-.7l-.1-.2c-.3 0-2.3 1-2.3 1.2 0 .2.2.1 1.4-.3zM10.2 43c0-.3-1.5-1-2-1-.6 0-.5.5.3.8.8.3 1.7.4 1.7.2zm108.3-.6l1-.6-.1-.3c-.4 0-2 .8-2.2 1-.2.4.3.4 1.3 0zM10 42c-1-.5-1.8-.7-1.8-.5 0 .1.4.4.8.5 1.3.4 1.8.4 1 0zm108.2-.2c.4-.2.8-.5.8-.7 0-.2-.2-.2-1 .2-1.6.8-1.5 1 .2.5zm-107.4 0c0-.3-1.7-1-2.2-1-.1 0 .2.3.8.5 1 .6 1.4.7 1.4.4zm107.4-1c.3-.2.5-.4.4-.5-.2-.2-2.2.8-2 1 0 .3.7.1 1.6-.4zM11 41.2c0-.3-1.7-1-2.2-1-.5 0-.1.3.8.7 1.2.6 1.4.6 1.4.3zm106.2-.7l1-.6c0-.2-.1-.3-.2-.3-.3 0-2 .9-2 1 0 .4.2.4 1.2 0zm-106 0c0-.2-1.8-1.2-2.1-1.1-.2 0 .1.3.7.7 1 .5 1.4.6 1.4.4zm105.7-.8c.8-.4 1.3-1 .8-1-.3 0-2 1-2 1.2 0 .3.2.3 1.2-.2zM10.2 39c-.6-.5-1-.6-1-.4a5 5 0 0 0 1.5 1s-.1-.3-.5-.6zm1.6.4c0-.4-1.9-1.7-2-1.5-.2 0 .1.5.6 1 1 .7 1.4.9 1.4.5zm104.8-.5l.7-.5c-.2-.2-2.3.5-2.3.7 0 .3.7.2 1.6-.2zM11.4 38c-.6-.5-1.1-.9-1.3-.9l.9 1c1.4 1.1 1.8 1.1.4 0zm86.1-1c-.5-2.3-2.1-3.7-4.8-4.4-2.6-.7-7.7-3.7-9-5.4-.8-1-1.8-.9-2.3.4-.3 1-.3 1.2 0 2.2l1.3 2.4c1.1 1.8 2.4 2.2 6.6 2.5 3.1.2 3.5.3 5.2 1.2 1 .5 2.2 1.3 2.5 1.7l.7.7-.2-1.4zm18.7 1.1l.9-.5c0-.3-.5-.3-1.5.1-1.5.7-1 1 .6.4zm-104.6-.9c-.5-.5-1-.8-1.1-.7-.2.2 1.6 1.7 2 1.6l-.9-.9zm.3-.8c-.6-.5-1.1-.8-1.2-.7 0 0 .3.5 1 1 .5.5 1 .9 1.1.8.1-.1-.3-.6-.9-1zm104 1l.6-.6c0-.3-1 0-1.7.5-.4.3-.4.3 0 .3.2 0 .7-.1 1-.3zm-102.5-.8c0-.3-2.1-1.7-2.3-1.6-.2.2 1.7 1.8 2 1.8.2 0 .3 0 .3-.2zm60.5-2.7a72.3 72.3 0 0 0 3.3-7.2l.5-1c0-.7 1-1.8 2.2-2.5.8-.4 1.6-.7 3-.8 2-.1 2.1 0 3.1.6a25725 25725 0 0 0 6.3 4c.4 0-.4-.6-2-1.5-.6-.4-1.6-1-2.2-1.6a8.5 8.5 0 0 0-5-2.1c-.6 0-1.2 0-1.3.2l-1.4.4c-1 .1-1.3.4-2 1.2a75.7 75.7 0 0 0-6 12.3c-.2.2-4.2.2-6.2 0h-2.6c-1.2-.1-1.8-.2-1.8-.4 0-.4-.8-1.3-1.1-1.3-.3 0 0 .6.8 1.6.5.6.6.6 5 .8 6.6.2 5.8.6 7.4-2.7zm41.3 2.4c.5-.3.8-.6.7-.7-.2-.2-2.3.7-2.3 1 0 .4.7.3 1.6-.3zM13 35c-1-1-1.5-1.1-1.5-.7 0 .3 1.9 1.6 2.3 1.6.1 0-.2-.4-.8-.9zm101.7.5c1.1-.7 1-1-.3-.4l-1 .6c0 .4.4.3 1.3-.2zm-44-1.2l1.7-2.3c1.3-1.4 2-2.9 2.3-4.4.2-1.7-.5-1.5-.9.3-.4 1.7-1 2.8-2.3 4.3-1.5 1.6-2 2.4-2 3 0 .8.6.4 1.3-.9zm2.7-2l.8-1.5-1.2 1.3c-1.3 1.3-2.3 3.1-2 3.4.3.3 1.6-1.4 2.4-3.1zm-7.4 2c.3-.7 1-1.6 1.2-2 .7-.5.9-1.5.4-1.5C67 30.7 65 34 65 35c0 .9.4.6 1-.8zm.8.7c0-.3.5-1 1.2-1.6.9-.7 1.1-1.1.9-1.3-.4-.2-.9.1-1.9 1.5-.7 1-1 2-.5 2 .2 0 .3-.2.3-.6zm-53.3-.6c-1-1-1.5-1.1-1.5-.7 0 .4 1.7 1.6 2.2 1.6.2 0 0-.4-.7-.9zm49.6.1c0-.4-.1-.7-.3-.6l-.2.8c0 .4 0 .6.2.6s.3-.3.3-.8zm1.2.4c.5-1.6 1-2.3 3-4.4 1.2-1.2 2.2-2.4 2.2-2.5 0-.7-.7-.6-1.2 0-.2.4-1.2 1.4-2 2.2-1.8 1.7-2.7 3.1-2.7 4.3 0 1 .5 1.1.7.4zm50.2 0c.4-.2.7-.5.6-.5-.2-.3-2.3.4-2.3.7 0 .4.8.3 1.7-.2zm-98.2-1.3c0-.1-.2 0-.4.3l-.4.8c0 .1.2 0 .4-.3l.4-.8zm55-1.8a7.7 7.7 0 0 0 2-3.7c0-.5 0-.7-.2-.7s-.5.3-.6.7c-.1 1-1.3 2.7-2.9 4.4-.8 1-1 1.5-1 1.9.1.5.2.4.8-.4l1.9-2.2zm-57.4 2c-.5-.5-1-.8-1.2-.8-.1 0 .1.3.7.8l1.1.8c.2 0-.1-.4-.6-.8zm47.8.2c-.5-.4-.8-.3-.5.2.2.2.5.3.6.2.2-.1.2-.3 0-.4zm52.2.3c.4-.2.8-.5.8-.7 0-.5 0-.5-1.3.2-1.6.8-1.3 1 .5.5zm-99.7-1.5c-.8-.8-1.4-1-1.4-.4 0 .3 2 1.6 2.1 1.5l-.7-1zm99.6.4c.4-.3.5-.8.2-.8l-1 .7c-.8.7-.8.7-.2.5.4 0 .9-.3 1-.4zM15.5 33c0-.3-1.9-1.7-2-1.5l.6 1c.9.7 1.4 1 1.4.5zm97.5-.3c.6-.5.8-1 .5-1-.4 0-2 1-2 1.3 0 .4 1 .2 1.5-.3zm-51-3.3c1-.7 2-1.6 2.5-1.8.8-.5 1.9-2.1 1.7-2.7 0-.4-.3-.2-.8.6-.4.6-1.6 1.7-2.8 2.4-2.7 1.8-3.9 3.8-2.9 4.8.3.2.4 0 .4-.8.1-1 .3-1.2 1.9-2.5zm-4.5 1.4A70.3 70.3 0 0 0 50 23a18 18 0 0 0-5.8-2l1 .4c3.5 1.1 5 2.1 8 5.3 1.7 1.8 5.7 5.8 5.9 5.8l-1.6-2zm55 1c.4-.4.6-.7.3-.7-.2 0-.7.3-1.1.7-.5.4-.7.6-.4.6l1.1-.6zm-97.8-.5c-.3-.3-.6-.5-.7-.4-.1.2 0 .5.4.7.9.7 1 .5.3-.3zm1.2.5c-.4-.6-1.3-1.5-1.6-1.5l.6 1c1 1 1.3 1.1 1 .5zm95.8-.4c1.1-.7 1.2-1.3 0-.6-.8.5-1.4 1.1-1.1 1.1l1-.5zm-95.5-.9c-.4-.5-.9-.9-1.2-1-.3 0-.2.2.5 1 1.1 1.1 1.6 1.2.7 0zm43-.2c.4-.8 1-1.4 2.8-2.6 2.3-1.6 3.7-3.3 3.7-4.4 0-.7-1-2.9-1.8-3.8l-.5-.7.2.7.7 1.5c.5 1 .5 2.3 0 3.5-.1.6-.7 1.2-2 2-2.2 1.4-3.1 2.3-3.6 3.4-.7 1.7-.3 2.1.5.4zm8.7-2.5c.7-1.4-.1-1-2 1-2.5 2.4-2.5 3.3 0 1.1l2-2zm43.3 3c.9-.5 1.1-1 .5-1-.3 0-1.8 1.2-1.8 1.4 0 .3.4.2 1.3-.4zm-94.9-1.4c-.4-.4-.9-.7-1-.6-.1.1.2.6.7 1.1.5.6 1 .8 1 .7 0-.2-.2-.7-.7-1.2zm94.4.6c.8-.5 1-1 .6-1l-1.1.8c-1 .9-.6 1 .5.2zm-43.6-3.6c0-.6-.4-.3-.8.5-.4.9-2 2.2-2.5 2-.1-.2-.2-.1 0 0 0 .2 0 .4-.3.6-.3.1-.4.4-.3.5.3.4 3.9-3 3.9-3.6zM16.9 29c-.4-.4-.8-.8-1-.8-.1 0 .1.4.6 1l1 .7-.6-1zm41.3.5V29l-.4.5c-.1.3-.2.6 0 .6l.4-.6zm13.5-.7c.5-1 .5-1.1.1-1.1-.3 0-1.3 2-1.1 2.2.3.2.6-.1 1-1zm38.4.7c.8-.6 1.1-1 .7-1-.3 0-2 1.5-1.8 1.5l1.1-.5zm-92-.3c0-.5-1.5-2-1.7-1.7-.2.2 1.2 2 1.5 2 .1 0 .2-.1.2-.3zm91.4-.3c.8-.5 1.3-1.2.8-1.2a6 6 0 0 0-2 1.6c0 .3.2.3 1.2-.4zm-39-.3c.4-1 0-1.2-.5-.4-.7.7-.7 1-.1 1 .2 0 .5-.3.6-.6zm-11-1.8c2.7-2.6 3-3.3 2.4-5.6l-1-3.3c-.2-1-.4-1.5-.5-1.2-.1.2 0 1.2.3 2.3 1 3.5.6 5.2-1.4 7.2-1.2 1.2-2.5 2.8-2.2 2.8l2.3-2.2zm16.6-.6c0-1.4-.8-.2-.9 1.5l-.1 1.4.5-1c.2-.6.5-1.4.5-1.9zM18 27.5c-.7-1-1.2-1.2-1.2-.8 0 .3 1.7 2 1.8 1.8l-.6-1zm91.4-1c-.3 0-1.8 1.4-1.8 1.9 0 .2.4-.1 1-.7s1-1 .8-1.1zm.4 1c.4-.5 0-.4-.7.2-.6.7-.6.7 0 .4l.7-.5zm-13.3 0c.4-.3 1.1-1.2 1.7-2l1.1-1.4.8-1c.4-.7.5-1.1.3-1.2-.2-.1-.3-.2-.4-.1l-1 1.7-2.4 3c-1.1 1.2-1.4 1.6-.9 1.6l.9-.6zm-78.1-.6l-1-.8c-.2.2 1.3 1.7 1.6 1.7.2 0-.1-.4-.6-.9zm90.2-.2c.3-.4.5-.7.3-.7-.3 0-1.9 1.3-1.9 1.6 0 .4.8-.1 1.6-1zm-88.9.4c0-.4-1.6-1.8-1.8-1.6 0 .1.2.6.6 1 .8.8 1.2 1 1.2.6zm88.4-1l.5-.8c-.2-.2-2.1 1.4-2.1 1.8 0 .3.8-.1 1.6-1zM59 25.7c1.1-1.3 1.7-2.5 1.7-3.7 0-1-.8-4-1-4-.4 0-.5.7-.1 1.6.7 1.8.3 4.6-1 5.7l-.8 1c-.5.8.2.5 1.2-.6zm49-.8c0-.4-.2-.3-1.2.6-.6.4-1 1-1 1 .2.3 2.3-1.2 2.3-1.6zm-87.8 1.3c0-.2-.3-.7-.7-1.1-1-1-1.4-.4-.4.6.8.9 1.1 1 1.1.5zm74-.6c1.1-1 4.1-5 4-5.6 0-.9-.5-.5-1.4 1.1-.5 1-1.7 2.6-2.7 3.6-1.8 2-1.8 2.4.1.9zm-32-.5c0-.1-.3.1-.5.5l-.5.8.6-.6.5-.7zm44.5 0c.6-.6.8-1 .6-1-.3 0-.8.4-1.3 1-1.2 1.2-.6 1.2.7 0zm-85.7.4c0-.4-1.5-1.7-1.7-1.5-.1 0 .1.5.5 1 .8.7 1.2 1 1.2.5zm85.1-1c.6-.5.9-.9.7-.9-.4 0-2.2 1.4-2.2 1.7 0 .3.5 0 1.5-.8zm-84.4.4c.2-.3-1.1-1.8-1.6-1.8s-.5.2.3 1.2 1 1 1.3.6zM59 23.8c.3-.6.3-1.3.2-2.5-.2-1.9-.2-2-.7-1.8v1c.4 1 .2 3.3-.4 3.9l-.4.6c0 .4.8-.4 1.3-1.2zm5-.1c.2-.6.2-1.1 0-1.7-.2-1-2-4.5-2.2-4.4l.8 2c1 1.9 1.1 3 .6 4.6-.4.9-.4 1 0 .7l.7-1.2zm13.3.3c0-.2-.1-.4-.3-.4-.1 0-.2.2-.2.5s0 .5.2.4c.2 0 .3-.3.3-.5zm14.5-.5c1.2-1.1 3-3.6 3.5-4.7v-1c-.6-.5-.8-.3-1.2 1-.5 1.6-1.8 3.4-3.4 4.9-.8.7-1 1-.6 1 .2 0 1-.5 1.7-1.2zm13.7.4c1-.9 1-1.1.6-1a6 6 0 0 0-2 1.6c0 .4.7 0 1.4-.6zm-83 .3c0-.4-1.4-2-1.7-2-.5 0-.5.2.3 1.3.7.8 1.4 1.2 1.4.7zm35.7-1.9c0-1.2-.3-2-.6-1.7l-.1 1.5-.1 1.8-.2.6.5-.6c.3-.4.5-1 .5-1.6zM24.5 24l-.1-.3-.3.3c-.1.1 0 .2 0 .2.2 0 .4 0 .4-.2zm28.2-.5l2.4-2.7a21 21 0 0 0 2.8-4c1-2 1-2.2 1-4C58.6 10.6 57.6 8 57 8c-.3 0-.3.1-.2.5 1.3 3 1.6 4.6 1.2 6.8-.3 1.3-2.2 4-4.3 5.8-1.2 1.1-2 2.2-2 2.7s.3.4.9-.4zm10 .2c0-.3 0-.2-.1.1l.1.4v-.5zm42-.2c.5-.3 1-.8 1-1 0-.5-.7-.2-1.4.6-.3.4-.7.6-.8.6-.2 0 .2-.4.7-1 .8-.6 1-.9.8-1.1-.2-.3-.6-.1-1.4.5-1 .9-1 .9-.6 1.5l.6.6 1-.7zm-81.5 0c0-.4-1.4-2-1.7-1.8-.1.1.2.7.6 1.2 1 1.2 1 1.3 1 .7zm2.3 0c0-.1 0-.4-.2-.5-.2 0-.3.1-.3.4 0 .3.1.6.3.6l.2-.4zM90.7 22c.2-1 .2-1.4 0-2.5a5.8 5.8 0 0 1-.2-3.4c.2-.5.1-.6-.2-.5-.6.2-.9 1.8-.4 3 .6 1.4.6 2.6 0 4-.4 1.4-.4 1.6 0 1 .3-.1.6-.9.8-1.6zm-64.5.2c-.3-.3-.5.2-.3.9l.3.7V22zm30.8.6c0-.6 0-1-.2-.8-.2 0-.3.5-.3 1 0 .4.1.7.3.7.1 0 .2-.4.2-1zm-29.6.5L27 23c-.1 0-.2 0-.2.2 0 .1 0 .2.2.2h.3zm24-.1c0-.2 1.1-1.3 2.4-2.6 1.5-1.5 2.2-2.3 2-2.4-.3 0-.7.2-1 .6-.6.9-1.4 1.7-2.9 3-1 .7-1.3 1.6-.7 1.6.1 0 .3 0 .3-.2zm38.1-1.5v-2.2c-.4-1.7-.5-3.1-.2-3.7.3-.7.1-1.1-.3-.6-.1.3-.2 1.4-.1 2.7.3 3.8.3 4.3 0 5-.1.5-.1.6.1.4.2-.2.4-.9.5-1.6zm-66 .7c-.6-1-1-1.5-1.3-1.3-.2.2 1.1 2 1.5 2 .2 0 0-.3-.2-.7zm5.2.5l-.1-.3-.3.3.1.3c.2 0 .3-.1.3-.3zm34.1-1.5c-.4-1.3-.5-1-.2.6.2.7.4 1.1.4.8.1-.2 0-.8-.2-1.4zm25.8.5c.1-.3 0-1.5-.3-2.5a6.6 6.6 0 0 1-.1-3.3c.3-1.7.2-1.9-.3-1.4-.8.6-.8 2-.2 4 .6 1.7.6 3 .1 4-.2.5-.1.6.2.3.3-.2.5-.7.6-1zm-59-.2c-.2-.5-.2-1.2-.2-1.6.1-.5 0-.7-.2-.6-.2.1-.3.6-.3 1.6.1 1.5.2 1.9.6 1.7v-1zm26.1.3c3-3.2 4.5-5.8 4.5-8.1 0-1.5-1.1-5.6-1.6-6-.5-.3-.5.5 0 1.6 1 1.7 1 5.2.3 7a22 22 0 0 1-3.7 5.2c-.5.4-.8.9-.8 1 0 .5.6.2 1.3-.7zm-31.2.3c0-.6-1.2-1.9-1.6-1.7-.2.2-.1.4.4 1l.6.8.3.2c.2 0 .3-.1.3-.3zm25.9 0l-.1-.2-.3.3.1.2c.2 0 .3 0 .3-.2zm37-.4c.3-.7.3-1-.2-2.6a13 13 0 0 1-.6-2.6c0-.8 0-.8-.3-.2-.2.5-.2 1 0 2.4.3 1 .4 2.2.4 2.7 0 1.2.3 1.3.7.3zm16.1-.1c.5-.5.8-1 .7-1-.3-.3-2.2 1.2-2.2 1.6 0 .5.5.2 1.5-.6zm-72.8.1c-.2-.2-.2-1.1-.2-2 0-1 0-1.5-.2-1.4-.3.2-.4 3.4 0 3.7.3.4.6.2.4-.3zm47.5 0c-.3-.6-.8-1-.8-.6 0 .2.7 1 1 1l-.2-.4zm-46.3-.1c0-.4-.5-1-.9-1l.1.7c.4.7.8.8.8.3zm47.6.1l-.7-1c-1-1.3-1-2.1-.2-4.5.7-2.1.9-5.2.4-5.5-.2-.1-.3.4-.3 1.4 0 1-.3 2.4-.6 3.6-1.1 3.6-1.1 3.5.3 5.4.6.8 1.1 1 1.1.6zm24-1.7c0-.4-.2-.2-1.2.6l-1 1c.2.3 2.3-1.2 2.3-1.6zm-78.2 1.4l-.6-.7c-.3-.2-.5-.6-.5-.7 0-.2.3 0 .7.3.6.6.7.6.4.1-.3-.7-1-1.3-1-1 0 .2-.3.4-.5.4-.4.1-.3.3.3 1 .7.8 1.2 1 1.2.6zm60.7-1a186.3 186.3 0 0 1-.7-3.8c-.3 0-.5 1.2-.2 2.3l.2 1.9c0 .6.2.8.5.8s.4-.1.2-1.2zm-52.9.7c-.1-.5-.7-.6-.7-.1 0 .2.2.4.4.4.3 0 .4-.2.3-.3zm15.2-.6v-.8l-.4.6c-.5.9-.5 1 0 1 .3 0 .4-.2.4-.8zm32.9.2L81 19c0-1-.3-1.2-.7-.4-.3.5 0 1.8.4 2.7.4.5.7.1.5-.5zm3.5-.4c-.5-3.1-.6-3.3-.8-3-.2.4 0 3.5.3 3.9l.4.2c.2 0 .2-.4 0-1.1zM34 19.9c0-.8.2-1.5.8-2.6 1-1.9 1-2.3.3-2-.3.2-.5.6-.5 1s-.2 1-.4 1.2c-.8.8-1 1.9-.7 2.8.4 1.1.6 1 .5-.4zm13.2.4c.2-.5 1-1.6 1.9-2.4 2-1.9 2-2.4 0-.6-1.7 1.5-2.7 2.7-2.7 3.5 0 .7.4.5.8-.5zm6-.6c1.5-1.5 1-1.9-.8-.5-1 .9-1.7 2.5-.8 1.8l1.5-1.3zm26.5.5c-.2-.5-.4-.8-.5-.7-.1.1 0 .6.2 1 .5 1 .7.8.3-.3zm2.7.8l-.4-1.6c-.3-1.2-.3-1.3-.4-.7 0 1.2.3 2.5.6 2.5.1 0 .2 0 .2-.2zm1-.9c-.2-.6-.3-1.5-.3-1.9 0-.4 0-.7-.2-.7-.1 0-.2.4-.2.9 0 1.4.3 2.8.6 2.8.1 0 .2-.4 0-1.1zm18.7.4c.5-.4.9-.8.8-1-.2-.2-2 1.1-2 1.5 0 .4.3.3 1.2-.5zm-75.8.1c0-.4-1.3-1.9-1.5-1.7-.1.2 1 2 1.3 2 .1 0 .2 0 .2-.3zm9-1.2c-.1-1.7-.4-1.8-.7-.2-.1 1 0 1.8.4 1.8l.2-1.6zm12.7-2c1.5-1.2 2.4-2.4 2.4-3.2l.1-1.4c.2-1.2-.7-3.3-1.5-3.4-.4-.1-.4 0 .2.9.5.8.7 1.3.7 2.4 0 1.6-.4 2.3-2.6 4.6-1.3 1.4-2 2.4-2 3.3.1.3.4 0 .7-.7.4-.7 1.3-1.8 2-2.4zm-19.6 3c0-.1 0-.2-.2-.2s-.3 0-.3.2.1.3.3.3c.1 0 .2-.1.2-.3zm8-1c0-1.4-.4-1.8-.6-.8-.2.7 0 2 .3 2 .2 0 .3-.5.3-1.2zm28.7-1c-.6-1-1-1.7-1.3-1.7-.4 0-.4.1-.1.8.4 1.1 1.9 3.3 2 3 0-.2-.2-1.1-.6-2zm-38.2 1.4c-.7-1.2-1.2-1.8-1.4-1.5-.3.3 1 2.2 1.4 2v-.5zm11 0l-.2-1.5c0-.9 0-.9-.4-.4s-.5 2-.2 2.4l.5.1c.3 0 .4-.2.3-.6zm64-.3c.3-.2.3-.4.3-.4-.4 0-1.5.9-1.5 1.1 0 .3.8-.1 1.3-.7zm-62.7-.3c-.2-.8 0-1.3.6-2.6 1-1.8 1.4-4.1.7-4.1-.3 0-.4.2-.4 1 0 .5-.4 1.6-1 2.7-1 2-1 2.6-.6 3.5.5.8.9.6.7-.5zm1.7.6c0-.2-.3-.5-.6-.7-.4-.2-.5-.2-.5.2l.2.7c.3.3.9.2.9-.2zm1.1-.4c0-.3-.2-.6-.4-.6s-.3 1 0 1.2c.3.3.6 0 .4-.6zm4.8-2.4c.8-1 1.8-2 2-2.5.9-1.4.6-3.6-.6-4.6-.7-.6-.8-.2-.2.8.3.5.5 1.2.5 1.5 0 1-1.1 3.2-2.2 4.3-1.2 1-1.7 2-1.7 3v.8l.3-.8c.2-.4 1-1.6 1.9-2.5zm-2 .2c.2-.5 1-1.6 1.7-2.4 1.3-1.7 1.5-2.3.9-3.7-.6-1.5-1-1.5-.8-.1.2 1.5-.4 3.6-1.6 5-1.1 1.4-1.5 2.1-1.5 3 0 1 .4 1 .6 0 0-.4.3-1.2.6-1.8zm56.4 2c.3-.3.5-.6.3-.6l-.6.4c-.1.2-.4.4-.6.4l.2-.5c.7-.8.5-1-.2-.3-.5.4-.6.6-.3 1 .4.4.5.4 1.2-.4zm-73.3.2c0-.4-1.3-1.9-1.6-1.9-.5 0-.2.7.5 1.4s1.1 1 1.1.5zm15-.7c0-.5.2-1.2.5-1.5.5-.7.5-1 0-1-.4 0-1 1.1-1 2.2 0 .7.2 1.2.4 1.2l.1-.9zM32 19c.3-.7.3-1.6 0-1.6s-.4.2-.7 1.2c-.2 1 .2 1.2.7.4zm-3.4-.4C27.7 17 27 16.3 27 17c0 .4 1.4 2 1.6 2v-.5zm4.6-.3l.7-1.3c.4-.6.1-.8-.6-.5-.3.2-.4.5-.4.7v1.2c-.5 1-.2 1 .3 0zm19 .4c.4-.4.4-.6.1-.6-.4 0-1 .5-1 .9s.4.2 1-.3zm14.4.2c0-.5-.9-2-1.2-2-.5 0-.4 0 .3 1.3.5 1 1 1.3 1 .7zm33.4-.4c.6-.7.6-.7 0-.2l-.5.2c0-.2 0-.4.2-.5.2 0 .3-.3.3-.4 0-.4-.8.2-1.1.8-.2.4-.2.5.2.4.3-.2.4-.1.2 0-.3.6 0 .4.7-.3zM51.1 18c.8-.9 0-1.1-1-.2l-.9.8h.7c.4 0 .9-.3 1.2-.6zm11.9-.7c-.5-1.3-.9-1.9-1.3-1.9-.3 0-.2.3.6 1.8 1 1.7 1.2 1.7.7 0zm14.5-1.5c.4-1.5.7-2.9.6-3-.2-.1-.7 1-.7 1.6l-.4.9c-.8 1.2-1.1 3.3-.4 3.3l.9-2.8zm4.3 1.4l2.4-.7c.8-.2 2.7-2 2.7-2.5 0-.7-.4-.6-.7.2-.3.6-2.3 1.7-3.1 1.7-.8 0-3.2 1.1-3.7 1.7-.6.8-.5 1.2.1.6.3-.3 1.3-.7 2.3-1zm17 .7c.6-.8.7-1.3.3-1.1-.4.1-1.4 1.8-1.1 1.8.1 0 .5-.3.8-.7zm-69.6.2c0-.3-1-2-1.3-2-.4 0-.3.6.3 1.4.6.7 1 1 1 .6zm62-1.2c.2-.7.1-1 0-.7-.3.4-.4 2.3-.2 2l.3-1.3zm7.3-.4c-.1-.7-.9-.6-1.5.3-.8 1.1-.5 1.3.5.2.8-1 .8-1 .3-.1-.8 1.2-.7 1.7.1.7.4-.4.6-1 .6-1.1zm-31 1.4c.1-.2-1-1.7-1.3-1.5 0 0 0 .4.3.9.4.8.6.9 1 .6zm-38-1c-.4-.8-1-1.4-1.2-1.2-.2.2 1.2 2 1.5 2 .2 0 0-.3-.2-.7zm.8-.8c-.3-.5-.8-1-1-1-.5 0-.4.2.4 1.4.9 1.3 1.4 1 .6-.4zm12.2-.1c0-.2-.1-.3-.3-.3-.4 0-.9 1-.7 1.5.2.4.3.3.6-.2l.4-1zm25.9 1l-.3-.4c-.4-.3-.3-1.9.4-4 .4-1.1.7-2.5.7-3v-1l-.3 1.1c0 .6-.3 1.5-.6 2L68 13c0 .3-.2 1-.5 1.6-.3 1-.3 1 0 1.8.5.8 1 1.1 1 .6zm7.8-1.2c.7-1.6.8-2.4.4-2.2-.4.1-1.7 3-1.5 3.4.3.4.4.3 1.1-1.2zm20.7.6c.3-.5.5-.9.4-1-.1-.1-1.4 1.3-1.4 1.7 0 .4.4.1 1-.7zm-55.7-.5l.5-1.6c0-.2-.2.1-.5.7l-.6 1.3c-.3.3-.3.7 0 .7 0 0 .4-.5.6-1.1zm54.9.1c.4-.6.6-1 .4-1.2-.2-.1-.5.1-1 .8-.5.9-.6 1.4-.2 1.4l.8-1zM31 15.6c-.2-.6-.5-1-.7-1-.4 0-.3.3.3 1.3.7 1.1 1 1 .4-.3zm38 .4c0-.5 0-1.5.3-2.4 1-3.4 1-3.7.7-4.3-.2-.6-.2-.6-.3.3l-.6 3c-.8 2.2-.9 3.3-.4 3.8s.5.4.4-.4zm6.6-2.1V13c-.4-.2-1.4 2-1.4 3 0 .7 0 .7.6-.4l.8-1.8zM32 16.3c0-.7-.6-2.2-1-2.2-.2 0-.3.1-.1.4l.4 1.2c.2.7.7 1 .7.6zm38.5-1c0-.7.2-2 .6-3.2.7-2 .7-3 0-3-.3 0-.4.2-.4.7 0 .4-.3 1.8-.7 3-.5 1.8-.6 2.5-.4 3 .4 1 1 .7.9-.6zm11.6.3c2.1-.5 3.3-1 3.5-1.7.2-.6 0-.8-.4-.3-.3.6-2 1.4-3.6 1.6-.5.1-1.3.5-1.7.8-.5.4-.5.5-.1.3l2.3-.7zm13 0c.9-1.1.9-1.1 0-1.6-.6-.5-.6-.4-1.3.6-.7 1.1-.8 1.3-.4 1.3l.8-.9c.3-.5.7-.9.8-.8l-.5.9c-1 1.5-.5 2 .6.5zM39 15c.8-1.5.7-2.5-.1-1.9-.3.2-.8 3-.5 3l.6-1zm33.4-2.8c.4-1.5.5-2.1.3-2.6-.2-.4-.3-.4-.3 0l-.7 2.5c-.5 1.7-.7 2.5-.5 3.2l.2 1 .2-1.1c0-.6.4-2 .8-3zm1.4 3.2c0-.4.3-1.5.7-2.3.4-1 .5-1.8.4-2.5-.3-1.4-.6-1.2-.6.4 0 1-.2 1.9-.6 2.7-.6 1.2-.7 2.4-.3 2.4.1 0 .3-.3.4-.7zm-40.9.3c0-.4-.9-2.3-1-2.3-.2 0-.3.3-.2.5l.5 1.2c.2.6.7 1 .7.6zm.4-1.4c-.4-1-.9-1.7-.9-1.2s.9 2.2 1.1 2.2l-.2-1zm4.7.2c0-.3-.2-.5-.4-.5-.4 0-.6.8-.3 1.1.3.3.7 0 .7-.6zm45.4-.4c.6-.3 1.3-.7 1.4-1 .4-.6-.3-.6-.7 0-.2.4-.8.6-1.6.8-1.3.2-2.7.7-2.7 1.1 0 .2 1.3-.1 3.6-1zm9.4 0c.7-1.2.9-1.7.5-1.7-.3 0-1.6 2.6-1.4 2.7.2.3.2.3 1-1zm1.1-.1c.2-.4.3-.8.2-1-.2-.1-1.4 1.6-1.4 2 0 .5.8-.2 1.2-1zm-59.7.2l-.6-1.4c-.5-.5-.5-.5-.3.2.4 1.8 1.2 3 .9 1.2zm39-.7c.7-1.5 1-2.7.6-3.6-.2-.6-.7-.5-.5.1a8 8 0 0 1-.5 2.7c-.8 2.4-.8 2.3-.5 2.3a5 5 0 0 0 1-1.5zm18.7.5l.7-1.3c.3-1-.3-.6-1 .7-.8 1.5-.6 1.9.3.6zm-56.6.4l-.5-1.3c-.4-.8-.7-1.2-.8-1-.3.3.5 2.4 1 2.4h.3zm56.1-1.3c.8-1.5.5-1.8-.3-.3l-.7 1.5c0 .5.5-.1 1-1.2zM36 14l-.5-1-.3-1.1c.1 0 .4.3.6 1 .5 1 1.2 1.5.8.5l-.4-1.1c-.3-.8-.6-1-1.3-.5-.2.1-.2.4.1 1.3l.7 1h.3zm46.6-.5c.6 0 1-.3 1.2-.5.2-.7-.2-.8-.7-.3l-.9.4c-.6 0-2 .6-2 .8h.7l1.7-.4zm8.2-.5c1-1.6.6-2.1-.4-.6l-.7 1.5c0 .6.5.2 1.1-1zm-1-.2c.4-.6.6-1.2.6-1.5 0-.3-.3 0-.8.9-1.1 2-1 2.5.2.6zM37 12c-.2-.6-.6-1.1-.8-1.1-.3 0-.3.2 0 1l.6 1.3c.1.2.3.3.4.1.2-.1 0-.6-.2-1.3zm52.1 0c.8-1.3.8-1.4.5-1.4-.3 0-1.6 2.3-1.6 2.7 0 .5.5 0 1.1-1.2zm-47 .1c-.1-.5-.6-.1-.6.6-.1.7 0 .7.3.2.2-.3.4-.6.3-.8zm-4.1-.5c-.3-1-.7-1.4-1-1.1-.1 0 0 .7.3 1.3.6 1.5 1.2 1.3.7-.2zm8-.4l-.6-.8c-.3 0-.3 0 .1 2l.2.8.3-.7c.2-.4.2-.8 0-1.3zm42.4.5c.8-1.7.2-1.9-.6-.2-.7 1.2-.7 1.5-.4 1.5.2 0 .6-.6 1-1.3zm-5.9.5c.4-.4 0-.6-.5-.3l-1.2.5c-.5.3-.5.3.4.2l1.3-.4zm5-.8c.5-1.1.6-1.3.3-1.3-.2 0-1.4 2.2-1.4 2.5 0 .4.6-.3 1-1.2zm-48.5.7c0-.7-.6-2-1-2-.2 0-.2.2.1 1.2.4 1.1 1 1.6 1 .8zm47.7-1c.4-.7.6-1.2.5-1.4l-.3-.1c-.4.5-1.3 2.4-1.3 2.5 0 .5.6 0 1.1-1zm-46.9.6c0-.4-.8-2.2-1-2-.2.2.5 2.3.8 2.3.1 0 .2-.1.2-.3zm3.5 0l-.3-.3c-.2 0-.3.2-.3.3 0 .1.1.3.3.3l.3-.3zm1.4-.5l-.4-.6c-.4 0-.6.9-.2 1.1.5.3.7 0 .6-.5zm36.6.5c.2 0 .3-.1.2-.2-.2-.3-1.1-.1-1.4.3 0 .1 0 .2.3 0l.9-.1zm4.5-.8c.6-1 .7-1.6.4-1.6-.2 0-1.4 2.2-1.4 2.5 0 .5.5 0 1-.9zm-45.5-.5c-.3-1-.7-1.4-.7-.7 0 .6.8 2 1 1.9 0-.1 0-.6-.3-1.2zM61 11.5c0-.8-1-3.8-1.3-3.8-.2 0-.3.2-.2.4a14 14 0 0 0 1.3 3.6c.1 0 .2 0 .2-.2zm24.2-1.2c.8-1.4.3-1.7-.5-.4l-.7 1.6c0 .4.8-.4 1.2-1.2zm-33.7 1c0-.5-1-2.2-1.2-2.2-.3 0-.3.3.2 1.1.5 1 1 1.6 1 1.1zm5.8-.7C56.9 9.3 56 8 55.6 8.2c-.4 0-.3.2 0 .8 1.6 2.6 2.1 3 1.7 1.6zm-15.6.5c0-.4-.9-2-1-2-.4 0-.4.1 0 1.2.1.5.4.9.6.9l.4-.1zm26.5-.4c.3-.6.2-2.2 0-2.2-.3 0-.9 1.8-.7 2.2.2.6.5.6.7 0zm16-.6c.6-1 .7-1.6.3-1.6-.2 0-1.3 2.2-1.3 2.6 0 .4.5-.1 1-1zM42 9.7c-.1-.5-.4-1-.5-1-.3 0-.3.2.2 1.3s.8 1 .3-.3zm41.1.9a176 176 0 0 1 .8-2.3c-.2 0-1.4 2.1-1.4 2.5 0 .3.5 0 .6-.2zM42.7 9.2c-.1-.5-.4-1-.5-1-.4 0-.3.5.2 1.6.5 1.2.8.7.3-.6zm9.4.7c-.2-.8-.5-1.3-.8-1-.2.1.5 1.7.8 1.7V10zm30.7-.7c.2-.8.3-1.2.1-1.2l-.8 1.4c-.3.8-.3 1.2-.1 1.2l.8-1.4zm-1 .4l.5-1.3c.2-.8-.4-.7-.7.1-.7 1.8-.6 2.7.1 1.2zm-38.3-.9c-.1-.4-.3-.7-.5-.7-.4 0-.3.1.2 1.3.5 1 .8.6.3-.6zm37.5.4c.4-1.3.4-1.5.2-1.6-.2 0-.5.6-.7 1.3-.3 1-.3 1.3 0 1.3.1 0 .4-.4.5-1zm-36.6-.3c-.1-.5-.4-1-.6-1-.1 0-.2 0-.2.2.6 1.5.8 1.9.9 1.8l-.1-1zm9.5.5c-.6-1-1.3-1-1 0 .1.3.4.5.7.5.4 0 .5 0 .3-.5zm1.3.4c0-.3-.7-1.4-.9-1.4-.3 0-.3 0 .1.9.3.5.8.9.8.5zm24-1.2c.4-1 .4-1.6 0-1.6-.1 0-.8 2-.8 2.7 0 .5.5 0 .8-1zm.8.6c.5-1.4.6-1.9.3-1.9s-.6.8-1 2c-.2.9.3.8.7 0zm-34.6.1c0-.6-.5-1.7-.8-1.7v1c.3 1 .8 1.5.8.7zm21.9-.4c0-.6-.4-.7-.6-.1-.2.6-.2 1 .2.8.2 0 .3-.4.4-.7zM45.9 7.6c-.3-.7-.4-.7-.5-.3 0 .3.1 1 .3 1.4.3.7.3.7.4.2 0-.3 0-.9-.2-1.3zm16 .2c-.3-.3-.4.2-.2.9l.2.7.1-.7v-1zm15.6.1c.5-1.4.4-2-.1-.8-.6 1.4-.8 2.2-.5 2.2.1 0 .4-.6.6-1.4zm1 .2c.1-.7.2-1.3 0-1.4-.1-.2-.3 0-.7 1.4-.3 1-.3 1.2 0 1.2.2 0 .5-.5.6-1.2zm-31.6-.2c-.1-.5-.4-1-.5-1.1-.2-.2-.2.1-.1.8l.3 1.3c.3.4.4-.1.3-1zm16.2.3c0-.3-.1-.4-.3-.3l-.2.7c0 .2 0 .4.2.3.2 0 .3-.4.3-.7zm2.7.4c.1-.2 0-.4-.2-.5-.5-.2-.8 0-.6.5.2.6.6.6.8 0zM76 8c.5-1.2.6-1.9.2-1.9-.2 0-1 2.2-1 2.7 0 .6.4.1.8-.8zm.7.4c.4-1.2.6-2 .4-2-.2 0-.5.6-.7 1.3-.4 1.4-.2 2 .3.7zM48 8.4c-.4-1.9-.4-2-.7-1.8-.2.2-.2.6 0 1.2.3 1 .8 1.4.7.5zm16.4-.1c0-.5-.5-.4-.6.1 0 .3 0 .4.2.3.2 0 .4-.2.4-.4zm10.3-1.9c.1-.4.1-.6-.1-.5-.3.1-1 2.1-1 2.8 0 .3.8-1.4 1.1-2.3zm.2 1.8c.4-.8.7-2 .5-2.2l-.7 1.4c-.6 1.3-.4 2 .2.8zm-26-.8c-.2-1.1-.4-1.4-.7-1.2-.3.2.2 2.3.5 2.3.2 0 .2-.5.1-1zm1-.1c-.3-1.5-.3-1.5-.7-1.3-.1 0-.2.5-.1 1 .2 1.3.3 1.5.6 1.5.2 0 .2-.4.1-1.2zm22.7.9c.2-.8.4-2.9.2-2.9s-.3.6-.4 1.2L72 8c-.1.2-.1.4 0 .4.2 0 .4-.1.5-.3zm1-1.2c.4-1.2.3-1.4 0-1.4-.2 0-.3.2-.3.5L73 7.6c-.2 1.4.1 1 .5-.6zM71 6c0-.6 0-1-.3-.9-.4.2-.8 2.3-.6 2.9.3.6 1-.8 1-2zm.8 1c.4-1.3.4-1.7 0-1.7-.2 0-.4.5-.6 2-.3 1.4.2 1.2.6-.2zM50.5 7c-.2-1-.3-1.3-.5-1-.2.2.2 2 .5 2 .1 0 .2-.4 0-1zm.8-.5c0-.5-.2-.9-.4-.9s0 1.7.2 2.2c.3.5.4-.3.2-1.3zm1 .1c-.2-1.3-.7-1.3-.6 0 0 1.1.2 1.5.5 1.3.1 0 .2-.7 0-1.3zm17.6-.4c.2-1.7-.3-1.9-.5-.2-.3 1.8-.3 2.1 0 1.8.2-.1.4-.9.5-1.6zm-16.6.5c0-1-.4-1.9-.7-1.6-.2.3.2 2.6.5 2.6.1 0 .2-.4.2-1zm15-.6c0-1 0-1.3-.3-1.3-.4 0-.8 2.2-.5 2.7.3.4.6 0 .7-1.4zm.7 0c.3-1.5-.2-1.8-.4-.3-.3 1.4-.2 2 0 1.8.2-.2.3-.8.4-1.5zM54.4 7c0-.8-.4-2-.6-2-.3 0-.3.9 0 1.8.1.6.6.8.6.2zm.7-.8c0-.7-.2-1.3-.3-1.4-.3-.3-.4.1-.3 1.3.3 1.6.8 1.7.6 0zM56 6l-.4-1c-.2-.2-.2 1.6 0 2.1.3.8.6.2.4-.9zm10.3-.4c0-.9-.1-1.1-.4-1.1-.4 0-.4.2-.4 1.2l.2 1.5c.2.4.6-.5.6-1.6zm.8.2V4.7c-.3-.2-.5.8-.6 2 0 1.2.5.7.6-.8zM57 6.2c-.2-1-.7-1.8-.7-1s.4 2 .6 2c.2 0 .2-.4 0-1zm.7-.4c0-.7-.2-1.2-.4-1.2s0 2 .3 2.4c.2.5.3 0 .1-1.2zm6.8 0c0-.7 0-1.2-.2-1.2s-.3.6-.3 1.3c0 .8.1 1.3.3 1.2l.2-1.4zm.8 0c0-.7-.1-1.2-.2-1.2-.2 0-.3.5-.3 1.3 0 .7.1 1.3.3 1.3.1 0 .2-.6.2-1.3zm-6.8 0c-.1-1.2-.2-1.4-.5-1.2-.2.2.2 2.3.5 2.3V6zm.7 0c-.2-1-.5-1.7-.5-1 0 .8.3 2.1.5 2.1V6zm.6-.7l-.3-.7v.7c0 .3 0 1 .2 1.3l.2.7v-.7c.1-.4 0-1-.1-1.3zm.9.7c-.3-1.5-.4-1.6-.4-.1 0 .7.1 1.2.3 1.2.1 0 .2-.4 0-1zm.7 0c-.1-1.2-.2-1.4-.5-1.2-.2.3.2 2.3.5 2.3V6zm.6-1.2c-.3-.3-.4.3-.2 1.3l.2 1.2V4.6zm1 1.7l-.3-1.2c-.2-.6-.2-.4-.3.6 0 .7.1 1.2.3 1.2.1 0 .2-.2.2-.6zm.7-.6c0-.6 0-1.1-.2-1.1S63 5 63 5.7c0 .7.1 1.2.3 1.2.1 0 .2-.5.2-1.2zM34.1 89.5c0-.2 0-.3.3-.3.2 0 .4.1.3.3l-.3.2s-.2 0-.3-.2zm45.3 0c0-.2.8-.6 1.6-1a6 6 0 0 0 1.5-.8c.2-.4 2.6-1.5 5-2.4l2.5-1.1c1-.6 1.4-.7 1.3-.2-.2.4-2.7 1.8-3.2 1.8a47 47 0 0 1-8.5 4c-.2 0-.3-.2-.2-.3zm-43.7-.6c.1-.1.3-.2.4 0 .4.2.3.3-.1.3-.3 0-.4-.1-.3-.3zm-3-.5l.2-.2c.2 0 .3 0 .3.2s-.1.3-.3.3a.3.3 0 0 1-.2-.3zm2.9-.8c0-.1.1-.2.3-.2.1 0 .2 0 .2.2s-.1.3-.2.3a.3.3 0 0 1-.3-.3zm-2.1-.2c0-.2 0-.3.2-.3s.3.1.3.3c0 .1-.1.2-.3.2a.3.3 0 0 1-.2-.2zm35.7-.3c-.4-.2-2.3-.6-4.3-1l-3.9-.7c-.2-.3.6-.7 1-.5a112.3 112.3 0 0 0 8.2 1.9l-1.8-1.2c-2-1-2.5-1.5-2.2-2 .2-.3.2-.3 4 .7 2.8.7 5.9 1 5.4.3l-1.6-1c-2.4-1-1.5-1.5 1.8-.9 3.4.7 5.6.8 5.6.5 0-.2 0-.3.2-.2.2 0 .3.3.3.6 0 .4-.8.3-5-.4a17 17 0 0 0-3-.3c-.6.1-.5.1.2.5 1.6.8 2.3 1.4 2 1.6-1 .5-6.3 0-8.6-1l-.4.1c0 .2.8.7 1.9 1.3 2 1 2.6 2 1.5 2l-1.3-.3zM37 86.9c-.1-.2 0-.4 0-.4h.5l-.1.5-.4-.1zm-2.8-.9c0-.1 0-.2.2-.2s.3.1.3.2c0 .2-.1.3-.3.3a.3.3 0 0 1-.2-.3zm1.4-.7c0-.2 0-.3.3-.3.2 0 .3.1.2.3l-.2.2-.3-.2zm51.7-1.6c0-.1 1-.7 2.2-1.2 1.3-.6 2-1.1 1.8-1.2-.4-.3 1.1-.8 2.2-.8 1.3 0 .8.5-1.3 1.5a61 61 0 0 0-3 1.4c-1 .6-1.9.7-1.9.3zM80 81.5c-.6 0-.9-.2-.6-.2.2 0 .5-.2.5-.3.1-.3.4-.2 1.4 0 2.1.7 1.3 1-1.3.5zM93 79s.4-.4.9-.6c.5-.3.6-.4.2-.3-.7.2-.8-.3 0-.7.3-.2.7-.2 1 0 .2.1.6.2.8 0 1-.2.5.4-1 1.1-1.6.8-1.9.9-1.9.5zM58.2 66.7L56 66c-.4-.4.3-2.3 1.2-3.1.5-.4 1.2-1 1.6-1.1.9-.4 4-.4 5 0 1.1.4 3.4 1.8 3.4 2l-.7 1.1c-1.3 2-4.7 2.7-8.2 1.8zm6.9-1.6c.8-.6.8-.8.2-1.4-.5-.5-1.1-.5-1 0L64 65c-.2 1 0 1 1 .2zm-7.3-.4c0-.7-.3-.6-.8.2-.2.4-.2.5.3.5.4 0 .5-.2.5-.7zm2.1-.5c0-.2-.2-.4-.4-.4s-.4.2-.4.4.2.4.4.4.4-.2.4-.4zM86 66.7c-1.4 0-2.1-.2-2.2-.5 0-.2 0-.3.4-.2l3.4.3c1.5 0 2.8 0 3 .2 0 .1-.4.2-.9.2l-1.2.1H86zm2.2-1.2c-1.2-.2-3.7-1.2-3.5-1.5.2 0 .9 0 1.6.4a8 8 0 0 0 2.2.5c.4 0 .8 0 .8.2 0 .4-.3.5-1 .4zm-2.5-2.8c-.3-.3-.8-1-1-1.7l-.5-1-.2 1.4c-.1 1.6-.8 2.2-.7.8l-.2-3.3-.2-4c0-1.5-.2-2-.8-2.9a58.9 58.9 0 0 0-8.1-8c0-.5.5-.5 1 0l1.4 1.3c4.6 3.6 7.2 6.4 9.5 10 1 1.7 2.5 3.7 3.2 4.5.7.8 1.2 1.5 1.1 1.6a19 19 0 0 1-3.1-3c-1.7-1.7-3.2-3-3.3-3a63.5 63.5 0 0 1 2.6 6.9c.5.8-.1 1-.7.4zM68.2 62l-1-.8c-.3-.4-3.3-1.3-5.4-1.5-1.7-.2-1.8-.2-1.2-.5.5-.3 1-.3 3.3.3 1.5.3 3 .8 3.3 1 .9.7 1.5.5 2.3-.6 1-1.4 1-1.8 0-1.2l-1 .4.2-.8.2-.8h-1.3c-.6 0-1.3-.2-1.5-.3-.2-.2-1-.2-2.5.2-1.2.4-2.7.6-3.2.6l-1.6.1c-.7.2-.8.2-.4-.3.3-.6.5-.6 2-.6 1.3 0 2.4 0 3.9-.5 1.9-.6 2-.6 2.3-.2.2.3.6.4 1.7.4s1.4.1 1.4.5c0 .3 0 .3.4 0 .7-.5 1.3 0 1.1.9-.2 1-1.7 4.2-2 4.2a4 4 0 0 1-1-.5zm27.6-1c-.6-.2-.6-1 .2-4.7.4-1.6.7-3.6.8-4.5.2-1.8.9-3.3 1.3-2.9.2.2.2.6 0 1.2a79.6 79.6 0 0 0-1.4 10c.4 0 2.7-2 3.4-3l.9-1c.8 0-.8 3-2 4-1 .6-2.5 1-3.2.9zM89 56a31.5 31.5 0 0 1 3.6-8.3c2.6-4.6 2.8-5.5 1.3-7.5-.5-.7-1-1.2-1.2-1.2-.2 0-.4.5-.5 1l-1.5 7.8c-.4 2-.7 2.8-1 2.5-.1-.1 0-1 .2-2.1.3-1.1.6-3 .7-4.4a25 25 0 0 1 1.2-5.7c.4-1 1.2-.8 2.6.5 1.7 1.7 2 2.6 1.4 4.7a52 52 0 0 1-4.5 9.1c-.5 1-1.2 2.2-1.3 2.7-.3.8-1 1.4-1 .8zm-36.7-5.8l.6-1c1-1.1.9-1.7-.1-.8-.3.2-.6.3-.7.1a74.8 74.8 0 0 0 3-3l2.6-2.3c1-.5 1 .1 0 .7-.4.3-1.5 1.1-2.3 1.9-1.2 1.1-1.5 1.4-1.5 2.2 0 .7-.2 1.2-.6 1.7-.6.6-1 .8-1 .5zM44 46.8c-1.3-.6-3.1-2.4-4.2-4-.6-.9-.7-1.1-.5-3 .1-2.5.5-3.4 1.7-4.2.9-.6 1.2-.7 2.8-.5 1.3 0 1.7 0 1.7-.2 0-.6-3-5-3.8-5.7-.8-.6-.8-.8-.2-.8.7 0 4.3 3.7 5.2 5.3 1.8 3 2.8 8.5 1.9 10.2-.6 1.2-1.2 1.1-1.2-.1l-.4-2.5c-.3-1.6-1-2-2.6-1.4-1 .4-1.4.3-1.1-.1.2-.4 1.9-1.1 2.6-1.1.8 0 1-.7.4-1.4-.4-.5-2.5-1-3.3-.9l-1 .1c-.9 0-1.5 1-1.5 2.4v1.4l2 1c1 .4 2.3 1 3 1 1.3.2 1.4.5.2.8-1 .1-2.4-.2-4-.8-.5-.3-1-.4-1-.2l1.4 2c1 1.3 1.6 1.9 2.4 2.2.6.2 1 .6 1 .8 0 .4-.2.4-1.5-.3z"></path></svg>